<?xml version="1.0" encoding="utf-8"?>
<!-- Generator: Adobe Illustrator 24.2.1, SVG Export Plug-In . SVG Version: 6.00 Build 0)  -->
<svg version="1.1" id="Слой_1" xmlns="http://www.w3.org/2000/svg" xmlns:xlink="http://www.w3.org/1999/xlink" x="0px" y="0px"
	 viewBox="0 0 256 256" style="enable-background:new 0 0 256 256;" xml:space="preserve">
<style type="text/css">
	.st0{fill:#191919;}
	.st1{fill:url(#SVGID_1_);}
	.st2{display:none;fill:#191919;}
	.st3{display:none;fill:#FFFFFF;}
	.st4{fill:#FFFFFF;}
	.st5{fill:#FFFFFF;stroke:#000000;stroke-width:14;stroke-linecap:round;stroke-linejoin:round;stroke-miterlimit:10;}
	.st6{font-family:'Krungthep';}
	.st7{font-size:71.8498px;}
</style>
<g>
	<path class="st0" d="M36.1,61.5c17.3-12.3,176.4-12.5,187.7,3.2s12.7,121.8-5.4,130.4s-167.9,14.1-182.3-1.4S17.7,74.5,36.1,61.5z"
		/>
	<path class="st0" d="M114.4,211.5c-72.7,0-81.2-9.2-84.1-12.4C17,184.9,13.6,127.7,17,94.6c2.2-21.3,7-34.3,14.5-39.6
		c14.9-10.6,86.6-10.5,100.8-10.4c23,0.2,44.6,1.4,60.8,3.3c27.4,3.3,34.2,8,37.2,12.1c11.6,16.1,12.9,88.9,4.6,121
		c-3,11.8-7.2,18.6-13.1,21.4c-12.6,6-64.2,8.7-95.9,9.1C121.9,211.5,118.1,211.5,114.4,211.5L114.4,211.5z M41.9,188.2
		c4.1,3.4,30.1,8,85.4,7.2c44-0.6,80.7-4.4,87.6-7.5c2.9-2.3,8.9-19.1,9.3-57.4c0.4-32.5-3.6-55.9-6.7-60.9c-4.6-3.4-32.2-8.8-88-9
		c-52.7-0.3-84.1,4.3-88.8,7.5c-1.8,1.3-5.7,8.8-7.7,28.2c-1.7,16.8-1.6,38,0.5,56.9C35.9,176,40,186,41.9,188.2L41.9,188.2z"/>
</g>
<g>
	<linearGradient id="SVGID_1_" gradientUnits="userSpaceOnUse" x1="24.4157" y1="128.6554" x2="232.8695" y2="128.6554">
		<stop  offset="0" style="stop-color:#FFCFA4"/>
		<stop  offset="4.090458e-02" style="stop-color:#FBC99B"/>
		<stop  offset="0.239" style="stop-color:#EBAE76"/>
		<stop  offset="0.4364" style="stop-color:#DE9A58"/>
		<stop  offset="0.6307" style="stop-color:#D48B43"/>
		<stop  offset="0.8203" style="stop-color:#CF8236"/>
		<stop  offset="1" style="stop-color:#CD7F32"/>
	</linearGradient>
	<path class="st1" d="M36.8,62.1c17.3-12.3,176.4-12.5,187.7,3.2s12.7,121.8-5.4,130.4s-167.9,14.1-182.3-1.4S18.4,75.2,36.8,62.1z"
		/>
</g>
<path class="st2" d="M129.7,104.2c1.7-1.4,9.6-1.4,10.7-0.1s0.4,18.8,1.1,19.6s2.8,0.4,3.7-0.1c2.7-1.4,13.7-19.3,15.3-19.8
	s11.4-1.4,12.2-0.1c1.2,1.9-15.3,22.2-15.3,24.3c0,3.2,17.7,25.3,16.8,26.4s-11.4,1.2-12.7,0.4s-12.6-19.8-14.5-21
	c-1.7-1.1-4.3-0.7-5,0s-0.6,19.3-1.4,20.4s-9.7,1.7-10.8,0.3S127.8,105.8,129.7,104.2L129.7,104.2z"/>
<path class="st2" d="M166.9,163.3c-6.8,0-8.6-1.1-9.7-1.8c-2-1.2-3-2.7-8.1-10.7c-0.2,4.4-0.6,6-1.9,7.8c-1.5,2.2-4.1,4.4-12.3,4.6
	c-3.9,0.1-8.6-0.3-11.4-4c-1.5-2.1-2.5-3.3-2.8-29.7c-0.1-4.7-0.1-11.5,0.1-17.2c0.3-8.2,0.7-11.7,4-14.3c4.3-3.4,17.1-4.3,21.6,0.8
	c1.5,1.7,2.2,3.6,2.5,6.9c4.6-6.6,6.1-8.5,9.1-9.5c2.4-0.8,7.2-1.1,8.7-1.2c5-0.2,10.1-0.1,12.9,4.3c3.2,5-0.1,10.1-2.5,13.7
	c-1.8,2.8-4.2,6.1-6.5,9.3c-1.3,1.8-2.9,4.1-4.1,5.8c1.8,2.9,5,7.3,7.1,10.3s4,5.6,5.4,7.7c2,3.1,5.5,8.2,1.5,13.2
	c-2.5,3.1-6.4,3.8-12.3,3.9L166.9,163.3z"/>
<path class="st0" d="M88.7,114.4c3-2.6,12.9-11.7,15.8-11.7h5.7c1.5,0,2.9,0,2.9,2.4v39c-0.1,1.2,0.8,2.2,2,2.3c0.1,0,0.2,0,0.2,0
	h5.3c1.7,0,1.7,8.6,0,8.6H92.5c-1.5,0-1.6-8.6-0.1-8.6h7.1c1.1,0.1,2-0.6,2.2-1.7c0-0.2,0-0.4,0-0.5c0-1.4,0-24,0-25.8
	s-0.8-2.4-2.1-1.2c-1.5,1.5-3.2,3-4.9,4.3C92.2,123.1,85.7,117,88.7,114.4L88.7,114.4z"/>
<path class="st0" d="M120.7,162.9H92.5c-2.2,0-9.2-0.9-9.2-12.5c0-1.6,0.2-3.1,0.5-4.6c1.3-5.5,5.4-7.4,8.6-7.4h1.2
	c0-1.7,0-3.6,0-5.5v-3.2c-3.8,0-7.8-2.1-10.8-5.8c-4.1-5.2-3.8-11.6,0.6-15.5l1-0.9c11.3-10,15.7-12.8,20.1-12.8h5.7
	c2.1-0.1,4.2,0.4,6,1.3c3.2,1.9,5.1,5.4,4.9,9.1v33.2c2.2,0.1,8.8,1.5,8.8,12.3c0,1.7-0.2,3.4-0.6,5
	C128,161,123.8,162.9,120.7,162.9L120.7,162.9z"/>
<path class="st3" d="M129.7,104.2c1.7-1.4,9.6-1.4,10.7-0.1s0.4,18.8,1.1,19.6s2.8,0.4,3.7-0.1c2.7-1.4,13.7-19.3,15.3-19.8
	s11.4-1.4,12.2-0.1c1.2,1.9-15.3,22.2-15.3,24.3c0,3.2,17.7,25.3,16.8,26.4s-11.4,1.2-12.7,0.4s-12.6-19.8-14.5-21
	c-1.7-1.1-4.3-0.7-5,0s-0.6,19.3-1.4,20.4s-9.7,1.7-10.8,0.3S127.8,105.8,129.7,104.2L129.7,104.2z"/>
<path class="st4" d="M88.7,114.4c3-2.6,12.9-11.7,15.8-11.7h5.7c1.5,0,2.9,0,2.9,2.4v39c-0.1,1.2,0.8,2.2,2,2.3c0.1,0,0.2,0,0.2,0
	h5.3c1.7,0,1.7,8.6,0,8.6H92.5c-1.5,0-1.6-8.6-0.1-8.6h7.1c1.1,0.1,2-0.6,2.2-1.7c0-0.2,0-0.4,0-0.5c0-1.4,0-24,0-25.8
	s-0.8-2.4-2.1-1.2c-1.5,1.5-3.2,3-4.9,4.3C92.2,123.1,85.7,117,88.7,114.4L88.7,114.4z"/>
<path class="st0" d="M71.8,111.8c-1.2-0.7-9-2-10.7-1.7s-2.1,7-1.3,7.8s9.2,2,10.7,1.7S73,112.5,71.8,111.8z"/>
<path class="st0" d="M70.6,138.8c-1.4,0-8.9,2.2-10.3,3.3s1.3,7.2,2.3,7.5s9.1-2.4,10.3-3.3S72,138.8,70.6,138.8z"/>
<path class="st0" d="M68.8,126.3c2.3,0.9,2.4,6.8-0.2,7.6s-16.7,0.9-18.7,0.1s-2.6-6.6,0.2-7.6S66.2,125.3,68.8,126.3z"/>
<path class="st0" d="M186.1,111.8c1.2-0.7,9-2,10.7-1.7s2.1,7,1.3,7.8s-9.2,2-10.7,1.7S184.8,112.5,186.1,111.8z"/>
<path class="st0" d="M187.2,138.8c1.4,0,8.9,2.2,10.3,3.3s-1.3,7.2-2.3,7.5s-9.1-2.4-10.3-3.3S185.9,138.8,187.2,138.8z"/>
<path class="st0" d="M189,126.3c-2.4,0.9-2.4,6.8,0.2,7.6s16.7,0.9,18.7,0.1s2.6-6.6-0.2-7.6S191.6,125.3,189,126.3z"/>
<g>
	<text transform="matrix(0.9685 0 0 1 133.2197 155.7871)" class="st5 st6 st7">0</text>
</g>
<text transform="matrix(0.9685 0 0 1 133.2197 155.7871)" class="st4 st6 st7">0</text>
</svg>
