<?xml version="1.0" encoding="utf-8"?>
<!-- Generator: Adobe Illustrator 24.2.1, SVG Export Plug-In . SVG Version: 6.00 Build 0)  -->
<svg version="1.1" id="Слой_1" xmlns="http://www.w3.org/2000/svg" xmlns:xlink="http://www.w3.org/1999/xlink" x="0px" y="0px"
	 viewBox="0 0 96 96" style="enable-background:new 0 0 96 96;" xml:space="preserve">
<style type="text/css">
	.st0{fill:#888888;}
</style>
<path class="st0" d="M48,2.7C23,2.7,2.7,23,2.7,48S23,93.3,48,93.3S93.3,73,93.3,48C93.3,23,73,2.7,48,2.7z M48,14
	c7,0,13.9,2.2,19.6,6.3L20.4,67.6c-10.9-15.2-7.4-36.4,7.8-47.3C33.9,16.2,40.9,14,48,14z M48,82c-7,0-13.9-2.2-19.6-6.3l47.3-47.3
	c10.9,15.2,7.4,36.4-7.8,47.3C62.1,79.8,55.1,82,48,82z"/>
</svg>
