<?xml version="1.0" encoding="utf-8"?>
<!-- Generator: Adobe Illustrator 24.2.1, SVG Export Plug-In . SVG Version: 6.00 Build 0)  -->
<svg version="1.1" id="Icons" xmlns="http://www.w3.org/2000/svg" xmlns:xlink="http://www.w3.org/1999/xlink" x="0px" y="0px"
	 viewBox="0 0 24 24" style="enable-background:new 0 0 24 24;" xml:space="preserve">
<style type="text/css">
	.st0{fill:#888888;}
</style>
<path class="st0" d="M22.4,3.1c-0.4-0.2-0.8-0.1-1.1,0.1l-5.2,4.3l-3.4-4.2c-0.4-0.4-1-0.5-1.5-0.1c0,0-0.1,0.1-0.1,0.1L7.9,7.6
	L2.6,3.2C2.2,2.9,1.6,2.9,1.2,3.4C1.1,3.5,1,3.8,1,4v14c0,1.7,1.3,3,3,3h16c1.7,0,3-1.3,3-3V4C23,3.6,22.8,3.3,22.4,3.1z M21,18
	c0,0.6-0.4,1-1,1H4c-0.6,0-1-0.4-1-1v-1h18V18z M21,15H3V6.1l4.4,3.6C7.6,9.9,7.8,10,8.1,10c0.3,0,0.5-0.2,0.7-0.4l3.2-4l3.2,4
	c0.3,0.4,1,0.5,1.4,0.2c0,0,0,0,0,0L21,6.1V15z"/>
<path class="st0" d="M14,11h-4c-0.6,0-1,0.4-1,1s0.4,1,1,1h4c0.6,0,1-0.4,1-1S14.6,11,14,11z"/>
</svg>
