<?xml version="1.0" encoding="utf-8"?>
<!-- Generator: Adobe Illustrator 24.2.1, SVG Export Plug-In . SVG Version: 6.00 Build 0)  -->
<svg version="1.1" id="Layer_1" xmlns="http://www.w3.org/2000/svg" xmlns:xlink="http://www.w3.org/1999/xlink" x="0px" y="0px"
	 viewBox="0 0 512 512" style="enable-background:new 0 0 512 512;" xml:space="preserve">
<path d="M488.1,148.4c-1.1-3.6-3.2-6.1-5.6-8.4L348.2,27.4c-3-2.6-6.6-3.8-10.6-5.4c-4.7-1.8-9.8-2-15.1-2H66
	c-19.9,0-38,11.8-38,28.1v412c0,16.5,18.1,31.8,38,31.8h390c19.9,0,34-15.4,34-31.8v-300C490,155.7,489.4,152.5,488.1,148.4z
	 M337.6,77.3l93,78.1h-93V77.3z M79.3,452.8V59.5h206.9v100.4c0,18.2,21.5,34.8,45.1,34.8h107.3v258.1H79.3z"/>
</svg>
