<svg width="38" height="37" viewBox="0 0 38 37" fill="none" xmlns="http://www.w3.org/2000/svg">
<path d="M11.166 22.5471C11.7209 22.2745 12.3868 22.4781 12.6821 23.0105L14.778 26.7893C14.9395 27.0805 15.2835 27.2274 15.6129 27.1465C15.9424 27.0654 16.1732 26.7768 16.1732 26.4459V20.9283C16.1731 20.5293 15.8409 20.2058 15.4309 20.2058C15.021 20.2058 14.6888 20.5294 14.6888 20.9284V23.5871L13.9881 22.3239C13.3081 21.098 11.7747 20.6291 10.4974 21.2568C9.40422 21.7938 8.84127 22.9782 9.12843 24.1372L10.4872 29.6207C10.8047 30.9026 11.371 32.0924 12.17 33.1571L14.8318 36.7036C14.9771 36.8973 15.2028 37 15.4316 37C15.5835 37 15.7369 36.9547 15.8689 36.8607C16.1999 36.6252 16.2721 36.1731 16.0303 35.8508L13.3685 32.3043C12.6855 31.3943 12.2016 30.3774 11.9302 29.2818L10.5715 23.7982C10.4467 23.2948 10.6913 22.7804 11.166 22.5471Z" fill="#000"/>
<path d="M27.923 19.4669C27.4851 19.4669 27.0728 19.5761 26.7133 19.7678C26.3491 18.8441 25.4291 18.1864 24.3538 18.1864C23.89 18.1864 23.4553 18.3093 23.0814 18.5225C22.6816 17.6757 21.8028 17.0858 20.7846 17.0858C20.413 17.0858 20.0602 17.165 19.7422 17.3058V13.8507C19.7422 12.4941 18.6087 11.3904 17.2154 11.3904C15.8221 11.3904 14.6886 12.4941 14.6886 13.8507V15.1034C14.6886 15.5024 15.0209 15.826 15.4308 15.826C15.8407 15.826 16.173 15.5024 16.173 15.1034V13.8508C16.173 13.2912 16.6406 12.8358 17.2154 12.8358C17.7901 12.8358 18.2578 13.2912 18.2578 13.8508V24.048C18.2578 24.447 18.5901 24.7706 19 24.7706C19.4099 24.7706 19.7422 24.447 19.7422 24.048V19.546C19.7422 18.9864 20.2098 18.5311 20.7846 18.5311C21.3594 18.5311 21.827 18.9864 21.827 19.546V24.048C21.827 24.447 22.1593 24.7706 22.5692 24.7706C22.9791 24.7706 23.3114 24.447 23.3114 24.048V20.6467C23.3114 20.087 23.7789 19.6317 24.3538 19.6317C24.9286 19.6317 25.3962 20.087 25.3962 20.6467V24.048C25.3962 24.447 25.7285 24.7706 26.1384 24.7706C26.5483 24.7706 26.8806 24.447 26.8806 24.048V21.9271C26.8806 21.3674 27.3482 20.9121 27.923 20.9121C28.4977 20.9121 28.9654 21.3674 28.9654 21.9271V28.0248C28.9654 29.6496 28.7121 31.2597 28.2128 32.81L27.1659 36.0607C27.0432 36.4415 27.2609 36.8471 27.652 36.9665C27.7259 36.9891 27.8006 36.9998 27.8743 36.9998C28.19 36.9997 28.4828 36.802 28.5822 36.4931L29.6292 33.2425C30.1736 31.5519 30.4497 29.7963 30.4497 28.0248V21.9271C30.4498 20.5706 29.3163 19.4669 27.923 19.4669Z" fill="#000"/>
<path d="M37.9378 3.83217C37.7897 3.38854 37.4031 3.07136 36.9289 3.00437L34.6557 2.68344L33.6385 0.677924C33.4264 0.259723 32.9972 0 32.5182 0H32.5179C32.0388 7.22656e-05 31.6095 0.260084 31.3976 0.678502L30.3815 2.68445L28.1084 3.00668C27.6343 3.07389 27.2479 3.39128 27.1 3.83506C26.9521 4.27878 27.0734 4.7566 27.4166 5.08208L29.0619 6.64287L28.6742 8.84741C28.5934 9.30723 28.784 9.76316 29.1716 10.0372C29.3906 10.1921 29.6467 10.2706 29.9045 10.2706C30.1032 10.2706 30.3029 10.2239 30.4874 10.1295L32.5204 9.08813L34.5539 10.1285C34.978 10.3455 35.4822 10.3098 35.8697 10.0355C36.2572 9.76114 36.4476 9.30521 36.3664 8.84538L35.9775 6.64107L37.622 5.07948C37.9649 4.75371 38.086 4.27574 37.9378 3.83217ZM34.8528 5.69027C34.5582 5.96986 34.424 6.37253 34.4937 6.76724L34.8229 8.63336L33.1015 7.75273C32.7373 7.56628 32.3025 7.5665 31.9385 7.75294L30.2175 8.63451L30.5458 6.76811C30.6151 6.37339 30.4807 5.97095 30.186 5.69142L28.7931 4.37012L30.7176 4.09739C31.1245 4.03965 31.4762 3.79077 31.6581 3.43153L32.5183 1.73344L33.3794 3.43103C33.5615 3.79019 33.9132 4.03885 34.3204 4.09645L36.2449 4.36824L34.8528 5.69027Z" fill="#000"/>
<path d="M24.4188 3.83217C24.2706 3.38854 23.8841 3.07129 23.4099 3.00437L21.1367 2.68344L20.1195 0.677924C19.9074 0.259723 19.4782 0 18.9992 0C18.9992 0 18.9989 0 18.9988 0C18.5197 7.22656e-05 18.0904 0.260084 17.8785 0.678502L16.8625 2.68445L14.5894 3.00668C14.1153 3.07389 13.7288 3.39128 13.581 3.83506C13.433 4.27878 13.5544 4.7566 13.8975 5.08208L15.5428 6.6428L15.1551 8.84734C15.0743 9.30716 15.2648 9.76309 15.6525 10.0371C15.8714 10.192 16.1276 10.2705 16.3854 10.2705C16.5841 10.2705 16.7838 10.2239 16.9683 10.1294L19.0013 9.08813L21.0348 10.1284C21.4589 10.3455 21.9632 10.3098 22.3507 10.0354C22.7382 9.76106 22.9285 9.30514 22.8473 8.84531L22.4584 6.64099L24.1029 5.07941C24.4459 4.75371 24.5669 4.27581 24.4188 3.83217ZM21.3338 5.69027C21.0393 5.96979 20.9051 6.37238 20.9747 6.76724L21.304 8.63336L19.5825 7.75273C19.2183 7.56636 18.7834 7.56643 18.4195 7.75294L16.6985 8.63451L17.0267 6.76811C17.0961 6.37332 16.9616 5.97088 16.667 5.69142L15.2741 4.37012L17.1985 4.09739C17.6055 4.03965 17.9571 3.79077 18.1391 3.43153L18.9993 1.73336L19.8604 3.43103C20.0425 3.79012 20.3942 4.03885 20.8014 4.09645L22.7259 4.36824L21.3338 5.69027Z" fill="#000"/>
<path d="M10.8998 3.83217C10.7517 3.38854 10.3651 3.07136 9.89088 3.00437L7.61763 2.68344L6.60053 0.677924C6.38841 0.259723 5.9592 0 5.4802 0C5.4802 0 5.47997 0 5.47983 0C5.00074 7.22656e-05 4.57146 0.260084 4.35956 0.678502L3.34351 2.68445L1.0704 3.00668C0.596294 3.07389 0.20991 3.39128 0.0619919 3.83499C-0.0859265 4.2787 0.0352731 4.75652 0.378461 5.08208L2.02382 6.64287L1.6361 8.84741C1.55528 9.30723 1.74587 9.76316 2.13352 10.0373C2.35254 10.1921 2.60859 10.2707 2.8665 10.2706C3.06519 10.2706 3.26491 10.2239 3.44942 10.1295L5.48242 9.0882L7.51595 10.1285C7.94011 10.3454 8.44428 10.3098 8.83177 10.0355C9.21927 9.76113 9.40957 9.30507 9.32845 8.84531L8.93954 6.64099L10.584 5.07941C10.9269 4.75371 11.048 4.27581 10.8998 3.83217ZM7.81483 5.6902C7.52025 5.96972 7.38599 6.37238 7.45568 6.76724L7.78492 8.63336L6.06356 7.75273C5.69936 7.56636 5.26452 7.56643 4.90055 7.75294L3.17941 8.63459L3.50761 6.76833C3.57707 6.37361 3.44266 5.97109 3.14794 5.6915L1.75515 4.37012L3.67957 4.09739C4.08651 4.03965 4.43816 3.79077 4.62007 3.43153L5.48027 1.73336L6.34136 3.43103C6.52342 3.79012 6.87514 4.03885 7.28238 4.09645L9.20695 4.36824L7.81483 5.6902Z" fill="#000"/>
<path d="M15.9557 17.5699C15.8176 17.4355 15.6262 17.3582 15.4309 17.3582C15.2358 17.3582 15.0443 17.4355 14.9062 17.5699C14.7682 17.7044 14.6888 17.8907 14.6888 18.0809C14.6888 18.2709 14.7682 18.4574 14.9062 18.5917C15.0443 18.7261 15.2358 18.8035 15.4309 18.8035C15.6261 18.8035 15.8176 18.7262 15.9557 18.5917C16.0937 18.4574 16.1731 18.2709 16.1731 18.0809C16.1731 17.8907 16.0937 17.7043 15.9557 17.5699Z" fill="#000"/>
</svg>
