<svg width="35" height="35" viewBox="0 0 35 35" fill="none" xmlns="http://www.w3.org/2000/svg">
<path d="M33.1328 7.88518H28.2777C29.0704 7.01689 29.5556 5.85793 29.5556 4.5863C29.5556 4.5863 29.5547 4.3922 29.5528 4.3368C29.5004 2.76752 28.6535 1.36803 27.2875 0.592857C25.8938 -0.197792 24.2336 -0.197584 22.8464 0.593616L20.6384 1.85281C19.2555 2.64145 18.1733 3.83012 17.5 5.22781C16.8268 3.83012 15.7446 2.64145 14.3618 1.85288L12.1538 0.593547C10.7666 -0.197584 9.10631 -0.197861 7.71266 0.592788C6.34663 1.36789 5.49973 2.76745 5.4473 4.33673C5.44545 4.39213 5.44449 4.58623 5.44449 4.58623C5.44449 5.85786 5.92978 7.01682 6.72241 7.88518H1.86731C0.837677 7.88518 0 8.73171 0 9.77214V14.2506C0 15.2911 0.837677 16.1375 1.86731 16.1375H2.72221V33.1131C2.72221 34.1535 3.55989 35 4.58952 35H30.4105C31.4401 35 32.2778 34.1535 32.2778 33.1131V16.1375H33.1327C34.1623 16.1375 35 15.291 35 14.2506V9.77207C35.0001 8.73171 34.1624 7.88518 33.1328 7.88518ZM21.4029 3.2217L23.6109 1.9625C24.5207 1.4436 25.6104 1.44402 26.5259 1.96347C27.4139 2.46724 27.9642 3.37429 27.9981 4.38992C27.9994 4.42763 28 4.5863 28 4.5863C28 6.40536 26.5355 7.88525 24.7353 7.88525H18.3223C18.5554 5.94089 19.6913 4.19774 21.4029 3.2217ZM7.00186 4.38985C7.03583 3.37429 7.5862 2.46724 8.47412 1.9634C8.93226 1.70347 9.43375 1.5736 9.93469 1.5736C10.4349 1.5736 10.9345 1.70319 11.389 1.9625L13.597 3.2217C15.3086 4.19774 16.4445 5.94089 16.6776 7.88511H10.2646C8.46448 7.88511 6.99995 6.40522 6.99995 4.58623C7.00001 4.5863 7.00063 4.42756 7.00186 4.38985ZM14.0001 18.5284H10.798C10.3684 18.5284 10.0202 18.8803 10.0202 19.3143C10.0202 19.7484 10.3684 20.1003 10.798 20.1003H14.0001V33.4281H4.58952C4.4176 33.4281 4.2778 33.2868 4.2778 33.1132V16.1375H14.0001V18.5284ZM14.0001 14.5657H1.86731C1.69538 14.5656 1.55559 14.4244 1.55559 14.2507V9.77221C1.55559 9.59841 1.69545 9.45715 1.86731 9.45715H14.0001V14.5657ZM19.4443 33.428H15.5557V9.45701H19.4443V33.428ZM30.7223 33.1131C30.7223 33.2868 30.5824 33.4281 30.4105 33.4281H20.9999V20.1002H23.9636C24.3932 20.1002 24.7414 19.7483 24.7414 19.3143C24.7414 18.8803 24.3932 18.5283 23.9636 18.5283H20.9999V16.1375H30.7223V33.1131H30.7223ZM33.4445 14.2507C33.4445 14.4244 33.3046 14.5657 33.1328 14.5657H20.9999V9.45708H33.1328C33.3047 9.45708 33.4445 9.59841 33.4445 9.77214V14.2507H33.4445Z" fill="#000"/>
<path d="M27.6581 20.1002H27.7359C28.1655 20.1002 28.5137 19.7483 28.5137 19.3143C28.5137 18.8803 28.1655 18.5283 27.7359 18.5283H27.6581C27.2285 18.5283 26.8803 18.8803 26.8803 19.3143C26.8804 19.7483 27.2285 20.1002 27.6581 20.1002Z" fill="#000"/>
<path d="M7.02585 20.1002H7.10365C7.53322 20.1002 7.88144 19.7483 7.88144 19.3143C7.88144 18.8803 7.53315 18.5283 7.10365 18.5283H7.02585C6.59628 18.5283 6.24806 18.8803 6.24806 19.3143C6.24806 19.7483 6.59628 20.1002 7.02585 20.1002Z" fill="#000"/>
</svg>
