<svg width="37" height="37" viewBox="0 0 37 37" fill="none" xmlns="http://www.w3.org/2000/svg">
<path d="M29.9188 10.7495C30.3178 10.7495 30.6415 10.426 30.6415 10.0269V2.16797C30.6415 0.972551 29.6689 0 28.4734 0H2.16803C0.972577 0 0 0.972551 0 2.16797V34.832C0 36.0275 0.972577 37 2.16803 37H28.4734C29.6689 37 30.6415 36.0275 30.6415 34.832V29.5081C30.6415 29.109 30.3178 28.7854 29.9188 28.7854C29.5197 28.7854 29.1961 29.109 29.1961 29.5081V34.832C29.1961 35.2305 28.8719 35.5547 28.4734 35.5547H2.16803C1.76954 35.5547 1.44535 35.2305 1.44535 34.832V2.16797C1.44535 1.7695 1.76954 1.44531 2.16803 1.44531H28.4734C28.8719 1.44531 29.1961 1.7695 29.1961 2.16797V10.0269C29.1961 10.426 29.5197 10.7495 29.9188 10.7495Z" fill="#000"/>
<path d="M15.3207 3.90234C11.6547 3.90234 8.67211 6.88482 8.67211 10.5508C8.67211 12.4526 9.475 14.1702 10.7593 15.3831C10.7834 15.4088 10.809 15.4332 10.837 15.4554C12.02 16.5378 13.5945 17.1991 15.3207 17.1991C17.0468 17.1991 18.6213 16.5378 19.8044 15.4554C19.8323 15.4332 19.8579 15.4088 19.882 15.3831C21.1665 14.1702 21.9693 12.4526 21.9693 10.5508C21.9693 6.88482 18.9868 3.90234 15.3207 3.90234ZM15.3207 15.7539C14.1407 15.7539 13.0516 15.3585 12.1777 14.6939C12.8129 13.5677 13.9982 12.8633 15.3207 12.8633C16.6433 12.8633 17.8286 13.5677 18.4637 14.6939C17.5898 15.3585 16.5008 15.7539 15.3207 15.7539ZM14.1644 10.2617V9.79199C14.1644 9.15446 14.6832 8.63574 15.3207 8.63574C15.9583 8.63574 16.477 9.15446 16.477 9.79199V10.2617C16.477 10.8992 15.9583 11.418 15.3207 11.418C14.6832 11.418 14.1644 10.8992 14.1644 10.2617ZM19.5079 13.6353C18.9749 12.8449 18.2363 12.2301 17.3787 11.8506C17.7191 11.4107 17.9224 10.8596 17.9224 10.2617V9.79199C17.9224 8.35745 16.7553 7.19043 15.3207 7.19043C13.8861 7.19043 12.7191 8.35745 12.7191 9.79199V10.2617C12.7191 10.8596 12.9224 11.4107 13.2628 11.8506C12.4052 12.2301 11.6665 12.8449 11.1335 13.6353C10.4955 12.7715 10.1175 11.7046 10.1175 10.5508C10.1175 7.68176 12.4516 5.34766 15.3207 5.34766C18.1898 5.34766 20.524 7.68176 20.524 10.5508C20.524 11.7046 20.146 12.7715 19.5079 13.6353Z" fill="#000"/>
<path d="M19.2232 31.6523H15.3207C14.9217 31.6523 14.5981 31.9759 14.5981 32.375C14.5981 32.7741 14.9217 33.0977 15.3207 33.0977H19.2232C19.6222 33.0977 19.9459 32.7741 19.9459 32.375C19.9459 31.9759 19.6222 31.6523 19.2232 31.6523Z" fill="#000"/>
<path d="M19.2232 27.6055H8.96118C8.56212 27.6055 8.2385 27.929 8.2385 28.3281C8.2385 28.7272 8.56212 29.0508 8.96118 29.0508H19.2232C19.6222 29.0508 19.9459 28.7272 19.9459 28.3281C19.9459 27.929 19.6222 27.6055 19.2232 27.6055Z" fill="#000"/>
<path d="M19.2232 23.5586H8.96118C8.56212 23.5586 8.2385 23.8821 8.2385 24.2812C8.2385 24.6804 8.56212 25.0039 8.96118 25.0039H19.2232C19.6222 25.0039 19.9459 24.6804 19.9459 24.2812C19.9459 23.8821 19.6222 23.5586 19.2232 23.5586Z" fill="#000"/>
<path d="M6.38549 19.7235C6.25114 19.589 6.06469 19.5117 5.87391 19.5117C5.68377 19.5117 5.49732 19.589 5.36298 19.7235C5.22856 19.8579 5.15123 20.0443 5.15123 20.2344C5.15123 20.4244 5.22849 20.6109 5.36298 20.7453C5.49812 20.8797 5.68377 20.957 5.87391 20.957C6.06469 20.957 6.25042 20.8797 6.38549 20.7453C6.51991 20.6109 6.59731 20.4244 6.59731 20.2344C6.59731 20.0443 6.51998 19.8579 6.38549 19.7235Z" fill="#000"/>
<path d="M6.38549 23.7703C6.25042 23.6359 6.06469 23.5586 5.87391 23.5586C5.68377 23.5586 5.49812 23.6359 5.36298 23.7703C5.22856 23.9047 5.15123 24.0912 5.15123 24.2812C5.15123 24.4713 5.22849 24.6578 5.36298 24.7922C5.49812 24.9266 5.68377 25.0039 5.87391 25.0039C6.06469 25.0039 6.25042 24.9266 6.38549 24.7922C6.51991 24.6578 6.59731 24.4713 6.59731 24.2812C6.59731 24.0912 6.51998 23.9047 6.38549 23.7703Z" fill="#000"/>
<path d="M6.38549 27.8172C6.25042 27.6828 6.06469 27.6055 5.87391 27.6055C5.68377 27.6055 5.49812 27.6828 5.36298 27.8172C5.22856 27.9516 5.15123 28.1381 5.15123 28.3281C5.15123 28.5182 5.22849 28.7046 5.36298 28.839C5.49732 28.9735 5.68377 29.0508 5.87391 29.0508C6.06469 29.0508 6.25114 28.9735 6.38549 28.839C6.51991 28.7046 6.59731 28.5182 6.59731 28.3281C6.59731 28.1381 6.51998 27.9516 6.38549 27.8172Z" fill="#000"/>
<path d="M19.2232 19.5117H8.96118C8.56212 19.5117 8.2385 19.8353 8.2385 20.2344C8.2385 20.6335 8.56212 20.957 8.96118 20.957H19.2232C19.6222 20.957 19.9459 20.6335 19.9459 20.2344C19.9459 19.8353 19.6222 19.5117 19.2232 19.5117Z" fill="#000"/>
<path d="M35.483 9.41766C34.7809 9.01232 33.963 8.90464 33.1798 9.11443C32.3967 9.32429 31.7421 9.82653 31.3368 10.5286L22.2425 26.2798C22.1927 26.3662 22.1612 26.4619 22.1502 26.561L21.51 32.2949C21.4782 32.5802 21.6183 32.8573 21.8669 33.0009C21.9791 33.0656 22.1038 33.0977 22.2281 33.0977C22.3793 33.0977 22.5299 33.0504 22.6568 32.957L27.3024 29.5356C27.3827 29.4765 27.4499 29.4014 27.4997 29.3151L36.5939 13.5638C37.4308 12.1145 36.9324 10.2545 35.483 9.41766ZM23.1297 30.8136L23.464 27.8195L25.5556 29.0271L23.1297 30.8136ZM26.6094 27.9665L23.8556 26.3767L31.1535 13.7367L33.9073 15.3265L26.6094 27.9665ZM35.3422 12.8411L34.6299 14.0749L31.8761 12.485L32.5885 11.2513C32.8008 10.8835 33.1436 10.6204 33.5538 10.5105C33.9642 10.4005 34.3926 10.4571 34.7603 10.6694C35.128 10.8817 35.3911 11.2245 35.501 11.6347C35.6109 12.0449 35.5546 12.4733 35.3422 12.8411Z" fill="#000"/>
</svg>
