<svg width="32" height="39" viewBox="0 0 32 39" fill="none" xmlns="http://www.w3.org/2000/svg">
<path d="M31.9662 10.1999C31.8766 9.91365 31.6229 9.70477 31.3174 9.66579L21.1982 8.38129L16.6876 0.395439C16.5501 0.151451 16.2863 0 16.0001 0C15.7138 0 15.4501 0.151451 15.3123 0.395439L10.8019 8.38129L0.682705 9.66579C0.377217 9.70477 0.123559 9.91365 0.033925 10.1999C-0.0557091 10.4861 0.0357542 10.7968 0.267156 10.994L7.53788 17.1866L5.82569 25.9083C5.7705 26.1897 5.8827 26.4778 6.11624 26.653C6.34947 26.8286 6.66471 26.8619 6.93148 26.7393L16.0001 22.5737L25.0687 26.7393C25.1754 26.7884 25.2897 26.8125 25.4037 26.8125C25.5744 26.8125 25.744 26.7583 25.8839 26.653C26.1171 26.4778 26.2296 26.1897 26.1741 25.9083L24.4623 17.1866L31.7327 10.994C31.9644 10.7968 32.0555 10.4861 31.9662 10.1999ZM23.0906 16.3285C22.8818 16.5064 22.7854 16.7786 22.8376 17.0438L24.3446 24.7216C24.3446 24.7216 16.3354 21.0422 16.3351 21.0422C16.1208 20.9437 15.8787 20.944 15.6647 21.0425L7.65556 24.7216L9.16257 17.0438C9.21471 16.7786 9.11837 16.5064 8.90922 16.3285L2.60465 10.9583L11.3998 9.84164C11.6479 9.8101 11.8656 9.66579 11.9857 9.45275L16.0001 2.34556L20.0144 9.45275C20.1345 9.66579 20.3522 9.8101 20.6004 9.84164L29.3955 10.9583L23.0906 16.3285Z" fill="#000"/>
<path d="M16.0001 10.2454C13.4053 10.2454 11.2943 12.2958 11.2943 14.8157C11.2943 17.3359 13.4053 19.386 16.0001 19.386C18.5949 19.386 20.7059 17.3359 20.7059 14.8157C20.7059 12.2958 18.5949 10.2454 16.0001 10.2454ZM16.0001 17.8626C14.2702 17.8626 12.8629 16.496 12.8629 14.8157C12.8629 13.1358 14.2702 11.7689 16.0001 11.7689C17.7299 11.7689 19.1373 13.1358 19.1373 14.8157C19.1373 16.496 17.7299 17.8626 16.0001 17.8626Z" fill="#000"/>
<path d="M25.4116 28.3359H6.58819C6.15526 28.3359 5.80404 28.6769 5.80404 29.0977V38.2383C5.80404 38.659 6.15526 39 6.58819 39H25.4116C25.8449 39 26.1961 38.659 26.1961 38.2383V29.0977C26.1961 28.6769 25.8449 28.3359 25.4116 28.3359ZM24.6275 37.4766H7.37264V29.8594H24.6275V37.4766Z" fill="#000"/>
<path d="M9.72568 35.9531H22.2745C22.7077 35.9531 23.0589 35.6121 23.0589 35.1914C23.0589 34.7707 22.7077 34.4297 22.2745 34.4297H9.72568C9.29245 34.4297 8.94123 34.7707 8.94123 35.1914C8.94123 35.6121 9.29245 35.9531 9.72568 35.9531Z" fill="#000"/>
<path d="M9.72568 32.9062H12.8629C13.2949 32.9062 13.647 32.5644 13.647 32.1445C13.647 31.7247 13.2949 31.3828 12.8629 31.3828H9.72568C9.29337 31.3828 8.94123 31.7247 8.94123 32.1445C8.94123 32.5644 9.29337 32.9062 9.72568 32.9062Z" fill="#000"/>
<path d="M19.1373 32.9062H22.2745C22.7068 32.9062 23.0589 32.5644 23.0589 32.1445C23.0589 31.7247 22.7068 31.3828 22.2745 31.3828H19.1373C18.7052 31.3828 18.3531 31.7247 18.3531 32.1445C18.3531 32.5644 18.7052 32.9062 19.1373 32.9062Z" fill="#000"/>
<path d="M16.0001 32.9062C16.4321 32.9062 16.7842 32.5644 16.7842 32.1445C16.7842 31.7247 16.4321 31.3828 16.0001 31.3828C15.5677 31.3828 15.2156 31.7247 15.2156 32.1445C15.2156 32.5644 15.5677 32.9062 16.0001 32.9062Z" fill="#000"/>
</svg>
