<svg width="818" height="480" viewBox="0 0 818 470" fill="none" xmlns="http://www.w3.org/2000/svg">
<path d="M815.196 1.54739C815.274 0.309219 817.085 0.389682 817.085 1.59006L817.085 3.52257C817.007 4.76112 815.196 4.6802 815.196 3.47982L815.196 1.54739Z" fill="#000"/>
<path d="M815.196 9.10645C815.274 7.86827 817.085 7.94874 817.085 9.14911L817.085 11.0816C817.007 12.3202 815.196 12.2393 815.196 11.0389L815.196 9.10645Z" fill="#000"/>
<path d="M815.196 16.6655C815.274 15.4273 817.085 15.5078 817.085 16.7082L817.085 18.6407C817.007 19.8792 815.196 19.7983 815.196 18.5979L815.196 16.6655Z" fill="#000"/>
<path d="M815.196 24.2246C815.274 22.9864 817.085 23.0669 817.085 24.2672L817.085 26.1997C817.007 27.4383 815.196 27.3574 815.196 26.157L815.196 24.2246Z" fill="#000"/>
<path d="M815.196 31.7836C815.274 30.5454 817.085 30.6259 817.085 31.8263L817.085 33.7588C817.007 34.9973 815.196 34.9164 815.196 33.716L815.196 31.7836Z" fill="#000"/>
<path d="M815.196 39.3427C815.274 38.1045 817.085 38.185 817.085 39.3853L817.085 41.3178C817.007 42.5564 815.196 42.4755 815.196 41.2751L815.196 39.3427Z" fill="#000"/>
<path d="M815.196 46.9017C815.274 45.6635 817.085 45.744 817.085 46.9444L817.085 48.8769C817.007 50.1154 815.196 50.0345 815.196 48.8341L815.196 46.9017Z" fill="#000"/>
<path d="M815.196 54.4608C815.274 53.2226 817.085 53.3031 817.085 54.5034L817.085 56.4359C817.007 57.6745 815.196 57.5936 815.196 56.3932L815.196 54.4608Z" fill="#000"/>
<path d="M815.196 62.0198C815.274 60.7817 817.085 60.8621 817.085 62.0625L817.085 63.995C817.007 65.2336 815.196 65.1526 815.196 63.9523L815.196 62.0198Z" fill="#000"/>
<path d="M815.196 69.5789C815.274 68.3407 817.085 68.4212 817.085 69.6216L817.085 71.5541C817.007 72.7926 815.196 72.7117 815.196 71.5113L815.196 69.5789Z" fill="#000"/>
<path d="M815.196 77.1379C815.274 75.8998 817.085 75.9802 817.085 77.1806L817.085 79.1131C817.007 80.3517 815.196 80.2708 815.196 79.0704L815.196 77.1379Z" fill="#000"/>
<path d="M815.196 84.697C815.274 83.4588 817.085 83.5393 817.085 84.7397L817.085 86.6722C817.007 87.9107 815.196 87.8298 815.196 86.6294L815.196 84.697Z" fill="#000"/>
<path d="M815.196 92.2561C815.274 91.0179 817.085 91.0983 817.085 92.2987L817.085 94.2312C817.007 95.4698 815.196 95.3889 815.196 94.1885L815.196 92.2561Z" fill="#000"/>
<path d="M815.196 99.8151C815.274 98.5769 817.085 98.6574 817.085 99.8578L817.085 101.79C817.007 103.029 815.196 102.948 815.196 101.748L815.196 99.8151Z" fill="#000"/>
<path d="M815.196 107.374C815.274 106.136 817.085 106.216 817.085 107.417L817.085 109.349C817.007 110.588 815.196 110.507 815.196 109.307L815.196 107.374Z" fill="#000"/>
<path d="M815.196 114.933C815.274 113.695 817.085 113.776 817.085 114.976L817.085 116.908C817.007 118.147 815.196 118.066 815.196 116.866L815.196 114.933Z" fill="#000"/>
<path d="M815.196 122.492C815.274 121.254 817.085 121.335 817.085 122.535L817.085 124.467C817.007 125.706 815.196 125.625 815.196 124.425L815.196 122.492Z" fill="#000"/>
<path d="M815.196 130.051C815.274 128.813 817.085 128.894 817.085 130.094L817.085 132.026C817.007 133.265 815.196 133.184 815.196 131.984L815.196 130.051Z" fill="#000"/>
<path d="M815.196 137.61C815.274 136.372 817.085 136.453 817.085 137.653L817.085 139.586C817.007 140.824 815.196 140.743 815.196 139.543L815.196 137.61Z" fill="#000"/>
<path d="M815.196 145.169C815.274 143.931 817.085 144.012 817.085 145.212L817.085 147.145C817.007 148.383 815.196 148.302 815.196 147.102L815.196 145.169Z" fill="#000"/>
<path d="M815.196 152.728C815.274 151.49 817.085 151.571 817.085 152.771L817.085 154.704C817.007 155.942 815.196 155.861 815.196 154.661L815.196 152.728Z" fill="#000"/>
<path d="M815.196 160.288C815.274 159.049 817.085 159.13 817.085 160.33L817.085 162.263C817.007 163.501 815.196 163.42 815.196 162.22L815.196 160.288Z" fill="#000"/>
<path d="M815.196 167.847C815.274 166.608 817.085 166.689 817.085 167.889L817.085 169.822C817.007 171.06 815.196 170.979 815.196 169.779L815.196 167.847Z" fill="#000"/>
<path d="M815.196 175.406C815.274 174.167 817.085 174.248 817.085 175.448L817.085 177.381C817.007 178.619 815.196 178.538 815.196 177.338L815.196 175.406Z" fill="#000"/>
<path d="M815.196 182.965C815.274 181.727 817.085 181.807 817.085 183.007L817.085 184.94C817.007 186.178 815.196 186.098 815.196 184.897L815.196 182.965Z" fill="#000"/>
<path d="M815.196 190.524C815.274 189.286 817.085 189.366 817.085 190.566L817.085 192.499C817.007 193.737 815.196 193.657 815.196 192.456L815.196 190.524Z" fill="#000"/>
<path d="M815.196 198.083C815.274 196.845 817.085 196.925 817.085 198.125L817.085 200.058C817.007 201.297 815.196 201.216 815.196 200.015L815.196 198.083Z" fill="#000"/>
<path d="M815.196 205.642C815.274 204.404 817.085 204.484 817.085 205.685L817.085 207.617C817.007 208.856 815.196 208.775 815.196 207.574L815.196 205.642Z" fill="#000"/>
<path d="M815.196 213.201C815.274 211.963 817.085 212.043 817.085 213.244L817.085 215.176C817.007 216.415 815.196 216.334 815.196 215.133L815.196 213.201Z" fill="#000"/>
<path d="M815.196 220.76C815.274 219.522 817.085 219.602 817.085 220.803L817.085 222.735C817.007 223.974 815.196 223.893 815.196 222.692L815.196 220.76Z" fill="#000"/>
<path d="M815.196 228.319C815.274 227.081 817.085 227.161 817.085 228.362L817.085 230.294C817.007 231.533 815.196 231.452 815.196 230.251L815.196 228.319Z" fill="#000"/>
<path d="M815.196 235.878C815.274 234.64 817.085 234.72 817.085 235.921L817.085 237.853C817.007 239.092 815.196 239.011 815.196 237.811L815.196 235.878Z" fill="#000"/>
<path d="M815.187 243.444C815.265 242.201 817.076 242.265 817.076 243.498C817.066 244.132 817.052 244.765 817.034 245.399C816.956 246.647 815.145 246.593 815.145 245.339C815.159 244.884 815.168 244.429 815.176 243.974C815.18 243.797 815.183 243.621 815.187 243.444Z" fill="#000"/>
<path d="M815.08 250.369C815.708 249.741 816.755 250.21 816.698 251.111C816.644 251.745 816.583 252.378 816.517 253.01C816.507 253.085 816.494 253.133 816.475 253.203C816.112 254.293 814.501 253.897 814.637 252.808C814.703 252.188 814.763 251.566 814.816 250.944C814.829 250.743 814.933 250.517 815.08 250.369Z" fill="#000"/>
<path d="M813.917 258.279C814.322 257.062 815.963 257.604 815.76 258.683C815.659 259.31 815.553 259.937 815.438 260.563C815.28 261.406 814.16 261.626 813.703 260.883C813.586 260.692 813.536 260.453 813.58 260.219C813.692 259.605 813.797 258.99 813.896 258.373L813.917 258.279Z" fill="#000"/>
<path d="M814.112 265.386C814.27 265.596 814.329 265.897 814.263 266.162C814.226 266.318 814.189 266.478 814.151 266.64C814.037 267.136 813.918 267.65 813.77 268.111C813.33 269.211 811.688 268.68 811.975 267.531C812.132 266.927 812.281 266.321 812.427 265.714C812.621 264.937 813.619 264.729 814.112 265.386Z" fill="#000"/>
<path d="M811.805 272.41C812.179 272.625 812.344 273.111 812.211 273.509C812.017 274.114 811.819 274.718 811.613 275.319L811.564 275.436C811.049 276.466 809.452 275.827 809.827 274.703C810.029 274.113 810.223 273.52 810.414 272.925C810.607 272.346 811.286 272.091 811.805 272.41Z" fill="#000"/>
<path d="M807.892 279.911C808.434 278.827 810.064 279.564 809.617 280.681C809.379 281.271 809.135 281.858 808.886 282.443C808.791 282.679 808.57 282.875 808.341 282.957C807.541 283.223 806.839 282.472 807.149 281.696C807.258 281.44 807.364 281.181 807.469 280.922C807.608 280.583 807.746 280.243 807.892 279.911Z" fill="#000"/>
<path d="M804.923 286.614C805.636 285.759 806.991 286.65 806.495 287.64C806.214 288.21 805.927 288.776 805.635 289.341C805.319 289.972 804.409 290.027 804.014 289.435C803.817 289.149 803.802 288.782 803.958 288.47C804.244 287.915 804.527 287.359 804.803 286.799C804.839 286.726 804.874 286.679 804.923 286.614Z" fill="#000"/>
<path d="M801.261 293.348C801.965 292.331 803.465 293.296 802.865 294.346C802.543 294.894 802.213 295.437 801.881 295.979C801.213 297.018 799.642 296.089 800.271 294.988C800.435 294.722 800.595 294.454 800.755 294.186C800.923 293.906 801.09 293.626 801.261 293.348Z" fill="#000"/>
<path d="M798.642 299.561C798.968 299.887 799.003 300.395 798.744 300.769C798.381 301.29 798.015 301.81 797.642 302.324C796.878 303.317 795.404 302.239 796.115 301.211C796.481 300.705 796.841 300.195 797.198 299.683C797.535 299.197 798.23 299.149 798.642 299.561Z" fill="#000"/>
<path d="M792.699 305.671C793.485 304.728 794.939 305.857 794.163 306.865C793.763 307.359 793.359 307.849 792.949 308.335L792.862 308.426C791.928 309.203 790.781 307.985 791.506 307.115C791.908 306.637 792.306 306.156 792.699 305.671Z" fill="#000"/>
<path d="M787.901 311.196C788.853 310.536 789.911 311.773 789.146 312.607C788.713 313.068 788.271 313.54 787.823 313.987C786.967 314.843 785.609 313.61 786.479 312.658C786.913 312.212 787.345 311.765 787.771 311.311C787.803 311.276 787.835 311.249 787.869 311.222C787.879 311.213 787.89 311.205 787.901 311.196Z" fill="#000"/>
<path d="M782.523 316.503C783.518 315.815 784.572 317.181 783.716 317.966C783.603 318.069 783.49 318.173 783.376 318.278C783.008 318.618 782.634 318.964 782.256 319.277C781.308 320.005 780.142 318.655 781.052 317.821C781.52 317.408 781.983 316.989 782.444 316.568L782.523 316.503Z" fill="#000"/>
<path d="M776.809 321.372C777.923 320.736 778.793 322.227 777.908 322.908C777.405 323.307 776.892 323.712 776.376 324.094C775.364 324.794 774.289 323.316 775.26 322.569C775.773 322.178 776.29 321.747 776.809 321.372Z" fill="#000"/>
<path d="M770.836 325.764C771.942 325.321 772.671 326.773 771.753 327.409C771.559 327.536 771.364 327.669 771.168 327.802C770.813 328.045 770.455 328.289 770.095 328.502C768.989 329.055 768.154 327.507 769.138 326.874C769.662 326.537 770.175 326.183 770.695 325.843C770.738 325.812 770.78 325.792 770.824 325.77L770.836 325.764Z" fill="#000"/>
<path d="M764.37 329.785C765.487 329.227 766.325 330.844 765.275 331.444C764.72 331.761 764.159 332.083 763.596 332.385C762.496 332.934 761.628 331.333 762.71 330.715C763.267 330.411 763.815 330.09 764.37 329.785Z" fill="#000"/>
<path d="M757.779 333.249C758.98 332.848 759.558 334.501 758.521 334.985C758.387 335.049 758.25 335.115 758.112 335.182C757.652 335.405 757.177 335.636 756.72 335.82C755.573 336.203 754.935 334.573 756.015 334.069C756.243 333.965 756.472 333.855 756.702 333.745C757.061 333.574 757.421 333.402 757.779 333.249Z" fill="#000"/>
<path d="M752.123 337.063C752.149 337.484 751.916 337.856 751.522 338.014C751.18 338.147 750.837 338.278 750.494 338.407C750.242 338.502 749.991 338.596 749.738 338.689C749.459 338.801 749.097 338.745 748.864 338.57C748.242 338.104 748.376 337.199 749.088 336.914C749.674 336.698 750.258 336.479 750.839 336.252C751.422 336.019 752.081 336.437 752.123 337.063Z" fill="#000"/>
<path d="M743.959 338.667C745.087 338.596 745.394 340.153 744.315 340.512C743.708 340.7 743.097 340.877 742.486 341.052C742.412 341.071 742.355 341.082 742.274 341.087C741.06 341.087 740.979 339.482 741.97 339.234C742.569 339.062 743.169 338.888 743.765 338.704C743.791 338.696 743.817 338.689 743.843 338.684C743.88 338.677 743.918 338.672 743.959 338.667Z" fill="#000"/>
<path d="M736.529 340.622C737.773 340.389 738.144 342.165 736.942 342.466C736.322 342.606 735.7 342.738 735.077 342.868C735.016 342.879 734.968 342.883 734.904 342.887C733.725 342.887 733.619 341.219 734.698 341.017C735.309 340.889 735.92 340.76 736.529 340.622Z" fill="#000"/>
<path d="M729.921 343.646C729.783 343.761 729.617 343.842 729.443 343.864C728.814 343.958 728.184 344.043 727.553 344.126C727.502 344.132 727.456 344.133 727.403 344.133C726.21 344.058 726.206 342.39 727.315 342.251C727.934 342.17 728.552 342.086 729.169 341.994C730.11 341.876 730.631 343.001 729.921 343.646Z" fill="#000"/>
<path d="M722.687 344.071C722.561 344.424 722.238 344.678 721.86 344.702C721.761 344.709 721.662 344.716 721.563 344.724C721.018 344.764 720.467 344.804 719.926 344.824C718.692 344.824 718.641 343.012 719.86 342.936C720.484 342.902 721.106 342.861 721.729 342.816C722.412 342.774 722.903 343.423 722.687 344.071Z" fill="#000"/>
<path d="M714.285 343.091C715.523 343.168 715.443 344.98 714.241 344.98C713.6 344.978 712.958 344.975 712.316 344.962C711.073 344.884 711.137 343.072 712.37 343.072C712.68 343.077 712.991 343.079 713.301 343.081C713.629 343.083 713.957 343.085 714.285 343.091Z" fill="#000"/>
<path d="M706.792 342.819C708.014 342.972 707.843 344.778 706.618 344.701C705.984 344.655 705.35 344.602 704.717 344.544C703.479 344.389 703.641 342.584 704.896 342.663C705.528 342.721 706.16 342.764 706.792 342.819Z" fill="#000"/>
<path d="M699.35 342C700.529 342.22 700.286 344.019 699.036 343.863C698.407 343.769 697.778 343.672 697.151 343.566C697.087 343.554 697.041 343.54 696.978 343.519C695.865 343.042 696.421 341.506 697.472 341.703C697.821 341.763 698.17 341.816 698.52 341.87C698.797 341.912 699.074 341.954 699.35 342Z" fill="#000"/>
<path d="M692.23 340.73C693.177 341.313 692.537 342.715 691.536 342.465L691.532 342.464C690.914 342.323 690.294 342.182 689.679 342.028C688.849 341.82 688.7 340.69 689.463 340.279C689.677 340.172 689.894 340.134 690.139 340.195C690.504 340.285 690.87 340.372 691.236 340.457C691.477 340.513 691.719 340.568 691.961 340.623C692.069 340.65 692.133 340.678 692.23 340.73Z" fill="#000"/>
<path d="M685.314 339.975C685.126 340.415 684.621 340.664 684.162 340.511C683.555 340.324 682.947 340.135 682.344 339.937C682.32 339.929 682.3 339.921 682.28 339.913C682.241 339.896 682.207 339.877 682.164 339.856C681.179 339.25 681.895 337.795 682.939 338.143C683.532 338.338 684.128 338.523 684.724 338.707C685.265 338.887 685.525 339.448 685.314 339.975Z" fill="#000"/>
<path d="M677.825 336.345C678.777 337.004 677.975 338.42 676.956 338.012C676.822 337.96 676.686 337.907 676.55 337.855C676.075 337.672 675.592 337.485 675.136 337.282C674.051 336.74 674.786 335.109 675.911 335.559C676.488 335.797 677.068 336.027 677.65 336.254C677.715 336.28 677.764 336.307 677.825 336.345Z" fill="#000"/>
<path d="M670.826 333.306C671.881 333.908 671.054 335.494 669.957 334.983C669.384 334.709 668.813 334.43 668.245 334.145L668.146 334.087C667.165 333.408 668.057 331.938 669.096 332.457C669.341 332.58 669.589 332.7 669.838 332.819C670.17 332.979 670.502 333.139 670.826 333.306Z" fill="#000"/>
<path d="M664.339 329.951C665.118 330.73 664.156 331.985 663.203 331.442C662.651 331.127 662.104 330.804 661.557 330.479C661.093 330.213 660.975 329.602 661.242 329.167C661.53 328.719 662.08 328.601 662.529 328.858C663.065 329.177 663.603 329.495 664.145 329.804C664.188 329.828 664.223 329.852 664.256 329.879C664.283 329.901 664.31 329.924 664.339 329.951Z" fill="#000"/>
<path d="M657.915 325.945C658.75 326.78 657.648 328.045 656.726 327.406C656.2 327.049 655.678 326.688 655.156 326.324C654.597 325.937 654.638 325.055 655.242 324.729C655.57 324.553 655.941 324.568 656.252 324.784C656.681 325.092 657.121 325.391 657.56 325.688L657.793 325.847C657.838 325.877 657.875 325.908 657.915 325.945Z" fill="#000"/>
<path d="M651.789 321.462C652.687 322.36 651.499 323.619 650.571 322.906C650.072 322.511 649.577 322.114 649.085 321.71L649.006 321.637C648.185 320.741 649.408 319.519 650.288 320.253C650.51 320.435 650.736 320.615 650.962 320.794C651.241 321.015 651.519 321.236 651.789 321.462Z" fill="#000"/>
<path d="M646.115 316.646C646.891 317.577 645.618 318.747 644.764 317.964C644.518 317.739 644.275 317.51 644.032 317.281C643.811 317.072 643.59 316.864 643.366 316.658C642.487 315.78 643.755 314.452 644.674 315.295C644.847 315.458 645.026 315.622 645.206 315.786C645.517 316.07 645.831 316.356 646.115 316.646Z" fill="#000"/>
<path d="M640.779 311.39C641.498 312.349 640.125 313.468 639.333 312.604C639.223 312.486 639.11 312.368 638.996 312.248C638.655 311.888 638.305 311.52 637.997 311.152C637.265 310.202 638.628 309.049 639.445 309.94C639.864 310.404 640.289 310.861 640.716 311.316L640.779 311.39Z" fill="#000"/>
<path d="M635.875 305.806C636.443 306.86 634.987 307.734 634.316 306.862C633.916 306.368 633.52 305.871 633.129 305.37L633.058 305.265C632.472 304.24 633.918 303.296 634.622 304.211C635.006 304.703 635.395 305.191 635.787 305.677C635.821 305.721 635.848 305.759 635.875 305.806Z" fill="#000"/>
<path d="M631.415 299.949C631.704 301.034 630.324 301.617 629.735 300.766C629.509 300.441 629.285 300.114 629.063 299.786C628.929 299.588 628.795 299.389 628.661 299.19C628.466 298.908 628.459 298.553 628.599 298.251C628.927 297.594 629.815 297.538 630.234 298.142C630.582 298.66 630.931 299.177 631.288 299.689C631.35 299.779 631.379 299.849 631.415 299.949Z" fill="#000"/>
<path d="M627.342 293.616C627.63 294.695 626.15 295.28 625.615 294.343C625.293 293.794 624.973 293.245 624.661 292.692C624.607 292.597 624.586 292.522 624.559 292.42C624.35 291.373 625.776 290.835 626.31 291.77C626.618 292.313 626.931 292.852 627.247 293.391C627.275 293.44 627.293 293.48 627.31 293.523C627.321 293.551 627.331 293.581 627.342 293.616Z" fill="#000"/>
<path d="M623.682 286.805C624.216 287.948 622.538 288.741 621.985 287.636L621.936 287.536C621.668 286.993 621.397 286.446 621.146 285.896C620.674 284.717 622.362 284.035 622.868 285.119C623.134 285.684 623.406 286.245 623.682 286.805Z" fill="#000"/>
<path d="M620.662 280.117C620.884 281.301 619.276 281.71 618.863 280.678C618.625 280.088 618.393 279.496 618.164 278.903C618.139 278.839 618.127 278.782 618.114 278.716L618.114 278.713C617.971 277.573 619.516 277.194 619.931 278.231C620.155 278.814 620.383 279.395 620.617 279.974C620.637 280.023 620.649 280.068 620.662 280.117Z" fill="#000"/>
<path d="M618.074 272.945C618.4 274.169 616.655 274.661 616.269 273.505C616.076 272.899 615.888 272.292 615.705 271.683C615.551 271.19 615.853 270.638 616.353 270.505C616.875 270.374 617.346 270.634 617.516 271.145C617.698 271.746 617.881 272.347 618.074 272.945Z" fill="#000"/>
<path d="M616.061 265.74C616.292 266.976 614.514 267.34 614.218 266.158C614.07 265.54 613.929 264.92 613.791 264.299C613.77 264.187 613.767 264.116 613.775 263.999C613.924 262.88 615.454 262.913 615.638 263.897C615.774 264.513 615.917 265.126 616.061 265.74Z" fill="#000"/>
<path d="M614.587 258.381C614.743 259.631 612.95 259.902 612.72 258.678C612.619 258.051 612.524 257.422 612.434 256.792L612.425 256.696C612.425 255.446 614.166 255.413 614.305 256.531C614.394 257.148 614.488 257.765 614.587 258.381Z" fill="#000"/>
<path d="M613.665 251.126C613.506 252.317 611.85 252.186 611.783 251.108C611.729 250.474 611.679 249.84 611.636 249.205C611.599 248.614 612.108 248.135 612.699 248.208C613.147 248.268 613.494 248.631 613.522 249.086C613.565 249.708 613.614 250.33 613.667 250.952C613.67 250.999 613.669 251.038 613.668 251.081C613.667 251.095 613.666 251.11 613.665 251.126Z" fill="#000"/>
<path d="M611.644 244.109C611.496 243.947 611.405 243.715 611.405 243.494C611.399 242.999 611.398 242.503 611.396 242.007C611.396 241.871 611.395 241.735 611.395 241.598L611.399 241.501C611.563 240.271 613.285 240.449 613.285 241.586C613.287 242.214 613.287 242.842 613.295 243.47C613.295 244.346 612.235 244.76 611.644 244.109Z" fill="#000"/>
<path d="M612.035 236.864C611.587 236.804 611.24 236.441 611.212 235.986C611.175 235.363 611.133 234.741 611.082 234.119C611.078 234.056 611.08 234.008 611.084 233.945C611.243 232.754 612.899 232.885 612.966 233.963C613.017 234.597 613.06 235.232 613.098 235.867C613.135 236.459 612.625 236.937 612.035 236.864Z" fill="#000"/>
<path d="M612.368 228.37C612.368 229.62 610.628 229.653 610.488 228.535L610.465 228.366C610.388 227.805 610.312 227.241 610.221 226.683C610.065 225.433 611.858 225.163 612.087 226.386C612.105 226.497 612.123 226.61 612.141 226.725C612.229 227.269 612.321 227.84 612.368 228.37Z" fill="#000"/>
<path d="M611.078 221.057C610.928 222.176 609.399 222.143 609.214 221.159C609.083 220.543 608.95 219.925 608.806 219.313C608.575 218.076 610.353 217.712 610.649 218.894C610.765 219.339 610.863 219.81 610.959 220.272C610.993 220.435 611.027 220.597 611.061 220.757C611.082 220.869 611.086 220.94 611.078 221.057Z" fill="#000"/>
<path d="M608.557 214.536C608.036 214.667 607.564 214.407 607.394 213.896C607.218 213.296 607.043 212.687 606.851 212.092C606.525 210.867 608.27 210.375 608.655 211.531C608.808 211.991 608.946 212.466 609.083 212.937C609.124 213.078 609.164 213.219 609.205 213.358C609.36 213.851 609.058 214.403 608.557 214.536Z" fill="#000"/>
<path d="M606.854 206.309C606.996 207.449 605.451 207.827 605.037 206.79C604.817 206.206 604.594 205.623 604.365 205.042C604.354 205.017 604.346 204.993 604.339 204.969C604.332 204.946 604.326 204.923 604.32 204.899C604.098 203.715 605.705 203.306 606.118 204.339C606.354 204.929 606.579 205.524 606.803 206.118C606.829 206.183 606.841 206.242 606.854 206.309Z" fill="#000"/>
<path d="M603.877 199.102C604.348 200.281 602.66 200.964 602.154 199.879C601.892 199.313 601.627 198.748 601.354 198.187C600.821 197.043 602.499 196.251 603.051 197.355C603.332 197.934 603.609 198.517 603.877 199.102Z" fill="#000"/>
<path d="M600.516 192.551C600.725 193.599 599.299 194.137 598.765 193.202C598.462 192.656 598.154 192.113 597.841 191.573C597.795 191.492 597.775 191.435 597.746 191.348C597.458 190.269 598.938 189.684 599.474 190.621C599.792 191.171 600.106 191.724 600.415 192.28C600.469 192.374 600.489 192.45 600.516 192.551Z" fill="#000"/>
<path d="M596.468 185.755C597.135 186.793 595.607 187.829 594.89 186.793C594.548 186.271 594.198 185.754 593.847 185.238C593.462 184.682 593.781 183.91 594.444 183.777C594.814 183.703 595.19 183.858 595.407 184.17C595.764 184.696 596.12 185.223 596.468 185.755Z" fill="#000"/>
<path d="M592.117 179.64C592.702 180.666 591.257 181.609 590.553 180.694C590.172 180.2 589.789 179.706 589.399 179.22C589.365 179.176 589.338 179.137 589.311 179.09C588.743 178.036 590.2 177.162 590.87 178.034C591.267 178.531 591.658 179.032 592.046 179.536L592.117 179.64Z" fill="#000"/>
<path d="M587.223 173.715C587.955 174.666 586.592 175.818 585.775 174.927C585.606 174.738 585.43 174.549 585.254 174.36C584.98 174.064 584.705 173.767 584.452 173.467C583.733 172.509 585.106 171.39 585.898 172.254C586.001 172.365 586.106 172.478 586.212 172.591C586.556 172.96 586.906 173.336 587.223 173.715Z" fill="#000"/>
<path d="M581.935 168.207C582.737 169.082 581.5 170.367 580.584 169.528C580.136 169.093 579.681 168.665 579.225 168.238C579.174 168.192 579.136 168.144 579.096 168.09C578.456 167.166 579.68 166.091 580.513 166.855C580.631 166.965 580.75 167.076 580.87 167.187C581.23 167.522 581.596 167.862 581.935 168.207Z" fill="#000"/>
<path d="M576.297 163.145C577.118 164.041 575.894 165.262 575.014 164.529C574.792 164.345 574.567 164.162 574.342 163.98C574.067 163.757 573.792 163.535 573.522 163.309C572.624 162.411 573.812 161.151 574.74 161.865C575.237 162.262 575.727 162.666 576.217 163.071L576.297 163.145Z" fill="#000"/>
<path d="M570.096 160.006C569.768 160.182 569.397 160.167 569.086 159.952C568.578 159.588 568.067 159.231 567.553 158.876C567.508 158.846 567.471 158.815 567.431 158.778C566.596 157.943 567.698 156.678 568.62 157.317C569.143 157.678 569.664 158.041 570.182 158.411C570.741 158.798 570.7 159.681 570.096 160.006Z" fill="#000"/>
<path d="M563.823 154.213C564.879 154.943 563.895 156.429 562.837 155.824C562.305 155.498 561.766 155.182 561.228 154.866C560.613 154.515 560.601 153.619 561.208 153.246C561.506 153.062 561.872 153.058 562.18 153.233C562.41 153.369 562.64 153.508 562.87 153.647C563.188 153.839 563.505 154.031 563.823 154.213Z" fill="#000"/>
<path d="M557.254 150.545C558.235 151.225 557.343 152.694 556.304 152.175C556.047 152.045 555.789 151.917 555.53 151.79C555.212 151.633 554.894 151.476 554.58 151.314C553.525 150.711 554.353 149.125 555.449 149.637C556.021 149.914 556.589 150.2 557.155 150.488L557.254 150.545Z" fill="#000"/>
<path d="M550.289 147.297C551.373 147.839 550.639 149.47 549.513 149.02C548.938 148.778 548.361 148.541 547.781 148.311C547.715 148.285 547.666 148.258 547.606 148.22C546.653 147.561 547.455 146.145 548.474 146.553C549.076 146.792 549.698 147.033 550.289 147.297Z" fill="#000"/>
<path d="M543.281 144.667C544.266 145.273 543.55 146.728 542.507 146.38C541.915 146.182 541.321 145.989 540.726 145.802C540.185 145.621 539.924 145.061 540.135 144.533C540.324 144.094 540.828 143.844 541.287 143.997C541.894 144.189 542.498 144.384 543.101 144.586C543.172 144.609 543.217 144.635 543.281 144.667Z" fill="#000"/>
<path d="M535.999 144.186C535.785 144.293 535.568 144.331 535.323 144.27C534.718 144.116 534.112 143.969 533.504 143.827C533.397 143.8 533.332 143.772 533.235 143.72C532.288 143.137 532.929 141.736 533.929 141.986C534.548 142.131 535.166 142.281 535.783 142.437C536.613 142.645 536.762 143.775 535.999 144.186Z" fill="#000"/>
<path d="M528.497 140.888C529.61 141.365 529.054 142.9 528.003 142.703C527.556 142.625 527.109 142.552 526.662 142.479C526.483 142.45 526.305 142.421 526.126 142.392C524.948 142.171 525.191 140.372 526.441 140.529C527.07 140.626 527.697 140.731 528.323 140.841C528.388 140.853 528.434 140.866 528.497 140.888Z" fill="#000"/>
<path d="M520.766 139.803C522.003 139.958 521.841 141.763 520.586 141.685C520.008 141.628 519.43 141.577 518.851 141.527L518.692 141.513C517.469 141.36 517.641 139.555 518.866 139.631C519.5 139.682 520.133 139.741 520.766 139.803Z" fill="#000"/>
<path d="M513.163 139.326C514.416 139.404 514.351 141.215 513.11 141.215C512.484 141.2 511.852 141.184 511.226 141.184C509.94 141.104 510.051 139.294 511.25 139.294C511.526 139.297 511.803 139.303 512.08 139.31C512.442 139.318 512.805 139.326 513.163 139.326Z" fill="#000"/>
<path d="M505.559 139.406C506.793 139.406 506.844 141.218 505.624 141.295C505.001 141.324 504.378 141.357 503.755 141.399C503.072 141.442 502.581 140.793 502.797 140.145C502.924 139.791 503.246 139.538 503.624 139.514C504.266 139.471 504.916 139.43 505.559 139.406Z" fill="#000"/>
<path d="M498.077 140.038C499.27 140.113 499.274 141.781 498.165 141.92C498.018 141.938 497.87 141.956 497.721 141.973C497.249 142.029 496.768 142.086 496.309 142.163C495.368 142.28 494.847 141.156 495.557 140.51C495.694 140.395 495.861 140.315 496.035 140.293C496.663 140.2 497.297 140.123 497.927 140.046C497.957 140.042 497.985 140.04 498.014 140.039C498.034 140.038 498.055 140.038 498.077 140.038Z" fill="#000"/>
<path d="M490.422 141.239C491.715 141.078 491.912 142.882 490.766 143.097C490.199 143.205 489.632 143.327 489.066 143.449L488.933 143.477C488.82 143.498 488.75 143.502 488.632 143.494C487.513 143.345 487.546 141.815 488.531 141.631C489.16 141.496 489.791 141.36 490.422 141.239Z" fill="#000"/>
<path d="M483.07 142.979C484.319 142.812 484.561 144.551 483.481 144.821C482.907 144.977 482.335 145.145 481.764 145.312L481.681 145.337C481.188 145.491 480.636 145.189 480.503 144.689C480.372 144.167 480.632 143.696 481.143 143.526C481.298 143.48 481.456 143.432 481.616 143.383C482.099 143.236 482.597 143.085 483.07 142.979Z" fill="#000"/>
<path d="M475.705 145.306C476.878 144.915 477.521 146.614 476.344 147.085C475.829 147.264 475.315 147.458 474.804 147.651L474.588 147.733C474.523 147.759 474.464 147.77 474.397 147.784C473.257 147.926 472.879 146.381 473.916 145.967C474.01 145.931 474.104 145.895 474.199 145.86C474.699 145.671 475.201 145.481 475.705 145.306Z" fill="#000"/>
<path d="M468.695 148.121C469.842 147.738 470.48 149.368 469.401 149.872C469.158 149.981 468.915 150.094 468.672 150.207C468.325 150.368 467.978 150.53 467.63 150.679C466.429 151.079 465.851 149.427 466.888 148.943C466.995 148.893 467.103 148.841 467.212 148.79C467.701 148.558 468.206 148.319 468.695 148.121Z" fill="#000"/>
<path d="M461.792 151.503C462.892 150.953 463.761 152.554 462.679 153.173C462.317 153.368 461.958 153.566 461.599 153.765C461.404 153.874 461.208 153.982 461.011 154.09C459.895 154.648 459.056 153.032 460.106 152.431C460.665 152.117 461.227 151.805 461.792 151.503Z" fill="#000"/>
<path d="M455.263 155.335C456.37 154.782 457.205 156.33 456.22 156.963C455.693 157.299 455.171 157.64 454.651 157.985C454.368 158.18 454.013 158.187 453.711 158.047C453.054 157.719 452.998 156.831 453.602 156.413C453.73 156.328 453.859 156.242 453.989 156.155C454.409 155.874 454.837 155.587 455.263 155.335Z" fill="#000"/>
<path d="M448.983 159.671C450.017 159.034 451.011 160.49 450.06 161.222C449.811 161.404 449.566 161.594 449.322 161.784C449.051 161.995 448.781 162.205 448.506 162.403C447.392 163.039 446.522 161.548 447.406 160.868C447.505 160.791 447.605 160.713 447.705 160.634C448.124 160.306 448.556 159.968 448.983 159.671Z" fill="#000"/>
<path d="M443.031 164.465C443.978 163.737 445.144 165.087 444.235 165.921C444.046 166.085 443.858 166.256 443.669 166.426C443.366 166.701 443.061 166.976 442.754 167.228C441.76 167.916 440.705 166.55 441.562 165.764C441.626 165.706 441.69 165.648 441.754 165.59C442.173 165.21 442.601 164.822 443.031 164.465Z" fill="#000"/>
<path d="M437.424 169.712C438.28 168.855 439.639 170.09 438.768 171.041C438.331 171.481 437.874 171.931 437.456 172.387C436.578 173.265 435.25 171.998 436.093 171.078C436.534 170.619 436.976 170.163 437.424 169.712Z" fill="#000"/>
<path d="M432.341 175.233C433.274 174.455 434.422 175.673 433.696 176.544C433.291 177.02 432.888 177.496 432.492 177.979C431.706 178.922 430.252 177.792 431.027 176.784C431.431 176.293 431.841 175.809 432.253 175.324L432.341 175.233Z" fill="#000"/>
<path d="M427.514 181.298C428.278 180.305 429.752 181.384 429.041 182.411C428.672 182.915 428.307 183.42 427.946 183.93C427.609 184.417 426.913 184.464 426.502 184.053C426.176 183.727 426.141 183.218 426.399 182.845C426.765 182.325 427.138 181.81 427.514 181.298Z" fill="#000"/>
<path d="M423.4 187.401C424.28 186.668 425.391 187.737 424.832 188.606C424.5 189.135 424.175 189.667 423.852 190.202C423.587 190.667 422.976 190.784 422.541 190.517C422.093 190.229 421.975 189.679 422.232 189.23C422.56 188.686 422.891 188.144 423.229 187.605C423.284 187.519 423.328 187.473 423.4 187.401Z" fill="#000"/>
<path d="M421.04 194.124C421.238 194.41 421.253 194.777 421.096 195.089C420.807 195.642 420.517 196.196 420.238 196.754C420.202 196.826 420.167 196.873 420.118 196.939C419.405 197.794 418.051 196.902 418.546 195.913C418.834 195.346 419.125 194.781 419.42 194.218C419.735 193.587 420.646 193.532 421.04 194.124Z" fill="#000"/>
<path d="M416.66 200.577C417.459 200.31 418.162 201.062 417.851 201.838C417.737 202.101 417.626 202.366 417.515 202.632C417.376 202.962 417.238 203.291 417.094 203.617C416.552 204.701 414.923 203.964 415.37 202.847C415.612 202.259 415.862 201.674 416.115 201.091C416.209 200.855 416.43 200.659 416.66 200.577Z" fill="#000"/>
<path d="M413.381 208.076C413.896 207.046 415.492 207.685 415.118 208.809C414.912 209.398 414.712 209.989 414.517 210.582C414.324 211.161 413.645 211.417 413.126 211.097C412.752 210.883 412.587 210.397 412.719 209.999C412.918 209.395 413.122 208.793 413.332 208.193L413.381 208.076Z" fill="#000"/>
<path d="M411.117 215.384C411.557 214.284 413.2 214.815 412.913 215.964C412.752 216.567 412.596 217.171 412.446 217.777C412.252 218.554 411.253 218.761 410.761 218.105C410.603 217.894 410.544 217.594 410.61 217.329C410.764 216.711 410.922 216.096 411.086 215.481L411.117 215.384Z" fill="#000"/>
<path d="M411.126 222.598C411.244 222.789 411.293 223.028 411.249 223.263C411.202 223.51 411.16 223.762 411.117 224.015C411.049 224.414 410.981 224.814 410.898 225.2C410.492 226.417 408.852 225.875 409.054 224.796C409.16 224.169 409.273 223.544 409.391 222.919C409.549 222.075 410.669 221.856 411.126 222.598Z" fill="#000"/>
<path d="M408.294 230.27C408.658 229.179 410.268 229.576 410.132 230.665C410.064 231.286 409.999 231.905 409.939 232.527C409.926 232.729 409.822 232.955 409.675 233.103C409.047 233.73 408 233.261 408.057 232.36C408.115 231.727 408.183 231.094 408.253 230.462C408.263 230.388 408.275 230.341 408.294 230.273L408.294 230.27Z" fill="#000"/>
<path d="M407.702 237.88C408.009 236.728 409.632 237.064 409.565 238.135C409.541 238.765 409.523 239.395 409.51 240.024C409.432 241.267 407.62 241.203 407.62 239.971C407.635 239.334 407.653 238.699 407.677 238.063C407.68 238.019 407.684 237.983 407.69 237.946C407.693 237.925 407.697 237.904 407.702 237.88Z" fill="#000"/>
<path d="M407.563 245.437C407.87 244.285 409.493 244.622 409.426 245.693C409.421 245.852 409.417 246.015 409.412 246.179C409.399 246.687 409.386 247.211 409.334 247.694C409.108 248.9 407.386 248.639 407.458 247.491C407.492 246.868 407.517 246.244 407.538 245.621C407.543 245.551 407.55 245.502 407.563 245.437Z" fill="#000"/>
<path d="M407.051 252.901C407.415 251.811 409.025 252.208 408.889 253.297C408.819 253.929 408.745 254.56 408.666 255.191C408.6 255.723 408.094 256.102 407.556 256.001C407.069 255.91 406.729 255.456 406.792 254.953C406.868 254.334 406.941 253.715 407.01 253.094C407.015 253.053 407.021 253.021 407.029 252.988C407.035 252.961 407.042 252.934 407.051 252.901Z" fill="#000"/>
<path d="M407.666 260.181C407.783 260.372 407.833 260.611 407.789 260.846C407.675 261.478 407.555 262.121 407.42 262.748C407.1 263.949 405.351 263.538 405.575 262.34C405.699 261.728 405.82 261.116 405.931 260.502C406.089 259.658 407.209 259.439 407.666 260.181Z" fill="#000"/>
<path d="M404.336 267.712C404.776 266.612 406.419 267.143 406.131 268.292C406.06 268.567 405.982 268.843 405.905 269.119C405.809 269.459 405.713 269.8 405.629 270.138C405.231 271.332 403.511 270.821 403.812 269.616C403.878 269.382 403.94 269.142 404.003 268.901C404.108 268.498 404.213 268.094 404.336 267.712Z" fill="#000"/>
<path d="M402.185 274.859C402.7 273.829 404.297 274.469 403.922 275.592C403.718 276.194 403.502 276.793 403.285 277.39C403.252 277.474 403.222 277.536 403.17 277.611C402.473 278.541 401.129 277.695 401.511 276.74C401.724 276.154 401.936 275.567 402.136 274.976L402.185 274.859Z" fill="#000"/>
<path d="M399.984 281.446C400.783 281.179 401.486 281.931 401.175 282.707C400.935 283.271 400.684 283.832 400.433 284.392L400.406 284.453C400.374 284.521 400.343 284.569 400.3 284.632C399.533 285.552 398.239 284.627 398.684 283.674C398.939 283.104 399.194 282.534 399.439 281.96C399.533 281.724 399.754 281.528 399.984 281.446Z" fill="#000"/>
<path d="M396.231 288.72C396.859 287.621 398.455 288.496 397.902 289.602L397.882 289.641C397.593 290.191 397.305 290.742 397.005 291.285L396.918 291.415C396.15 292.337 394.803 291.329 395.35 290.372C395.649 289.825 395.941 289.273 396.231 288.72Z" fill="#000"/>
<path d="M392.697 295.024C393.576 294.291 394.687 295.36 394.128 296.229C394.056 296.346 393.983 296.465 393.91 296.585C393.638 297.027 393.361 297.479 393.071 297.895C392.262 298.866 390.899 297.785 391.525 296.811C391.863 296.286 392.196 295.759 392.525 295.228C392.58 295.142 392.624 295.096 392.697 295.024Z" fill="#000"/>
<path d="M388.348 301.444C389.112 300.451 390.586 301.53 389.875 302.558C389.503 303.073 389.121 303.582 388.74 304.09C388.682 304.165 388.632 304.21 388.56 304.271C387.605 304.932 386.602 303.769 387.233 302.949C387.608 302.45 387.982 301.95 388.348 301.444Z" fill="#000"/>
<path d="M383.726 307.33C384.59 306.389 385.946 307.618 385.163 308.559C384.751 309.043 384.338 309.526 383.917 310.003C383.26 310.72 382.095 310.137 382.289 309.167C382.317 309.025 382.401 308.86 382.503 308.749C382.916 308.28 383.322 307.806 383.726 307.33Z" fill="#000"/>
<path d="M378.68 312.864C379.536 312.008 380.895 313.242 380.024 314.193C379.578 314.646 379.128 315.095 378.675 315.541C378.582 315.626 378.525 315.662 378.419 315.719C377.374 316.167 376.63 314.853 377.355 314.188C377.8 313.75 378.241 313.309 378.68 312.864Z" fill="#000"/>
<path d="M373.28 317.977C374.228 317.248 375.394 318.598 374.484 319.432C374.007 319.852 373.525 320.265 373.04 320.677C372.976 320.731 372.925 320.76 372.856 320.799C371.749 321.274 371.023 319.898 371.82 319.234C372.025 319.06 372.229 318.882 372.433 318.704C372.714 318.458 372.996 318.213 373.28 317.977Z" fill="#000"/>
<path d="M367.492 322.701C368.527 322.065 369.521 323.521 368.569 324.253C368.061 324.635 367.551 325.014 367.037 325.388L366.935 325.452C365.831 326.005 365.019 324.487 365.933 323.855C366.147 323.699 366.362 323.537 366.576 323.375C366.88 323.145 367.185 322.915 367.492 322.701Z" fill="#000"/>
<path d="M361.361 326.993C362.468 326.439 363.303 327.988 362.318 328.621C361.784 328.965 361.247 329.304 360.707 329.639C359.606 330.268 358.677 328.698 359.716 328.03C359.934 327.895 360.153 327.754 360.371 327.613C360.701 327.401 361.031 327.188 361.361 326.993Z" fill="#000"/>
<path d="M354.876 330.845C355.975 330.295 356.844 331.896 355.762 332.514C355.204 332.819 354.641 333.116 354.079 333.411L353.957 333.464C352.816 333.844 352.201 332.237 353.207 331.734C353.622 331.517 354.034 331.296 354.446 331.075C354.589 330.998 354.732 330.921 354.876 330.845Z" fill="#000"/>
<path d="M348.347 334.125C349.447 333.905 349.959 335.431 348.928 335.912C348.772 335.982 348.611 336.056 348.449 336.131C348 336.338 347.534 336.553 347.092 336.715C345.878 337.039 345.407 335.356 346.447 334.941C347.02 334.693 347.59 334.441 348.16 334.186C348.218 334.159 348.274 334.144 348.332 334.129L348.347 334.125Z" fill="#000"/>
<path d="M341.226 337.011C342.399 336.62 343.042 338.319 341.865 338.79C341.741 338.835 341.617 338.88 341.493 338.926C341.007 339.104 340.514 339.284 340.026 339.439C338.792 339.747 338.348 338.007 339.461 337.636C340.052 337.435 340.639 337.224 341.226 337.011Z" fill="#000"/>
<path d="M334.195 339.29C335.444 339.123 335.686 340.862 334.606 341.132C334.45 341.176 334.29 341.222 334.129 341.269C333.642 341.411 333.138 341.557 332.665 341.653C331.46 341.803 331.176 340.082 332.294 339.803C332.898 339.645 333.5 339.48 334.101 339.311L334.195 339.29Z" fill="#000"/>
<path d="M326.848 341.068C328.14 340.907 328.338 342.711 327.192 342.926C327.098 342.945 327.004 342.964 326.909 342.983C326.372 343.091 325.832 343.199 325.294 343.292C324.048 343.448 323.794 341.651 324.986 341.427C325.364 341.359 325.741 341.285 326.117 341.211C326.361 341.163 326.604 341.115 326.848 341.068Z" fill="#000"/>
<path d="M319.449 342.286C320.741 342.205 320.848 344.015 319.664 344.163C319.033 344.241 318.401 344.318 317.769 344.385C317.702 344.393 317.639 344.389 317.572 344.385C316.45 344.235 316.455 342.646 317.579 342.505C317.901 342.464 318.224 342.428 318.548 342.391C318.849 342.357 319.15 342.323 319.449 342.286Z" fill="#000"/>
<path d="M312.006 342.95C313.24 342.95 313.291 344.763 312.071 344.839C311.436 344.873 310.8 344.898 310.165 344.92C308.911 344.92 308.857 343.109 310.105 343.031C310.437 343.02 310.768 343.005 311.1 342.989C311.402 342.975 311.704 342.961 312.006 342.95Z" fill="#000"/>
<path d="M304.496 343.067C305.749 343.145 305.684 344.956 304.443 344.956C304.282 344.953 304.117 344.95 303.95 344.948C303.444 344.942 302.921 344.935 302.44 344.89C301.191 344.64 301.516 342.941 302.62 343.011L302.665 343.013C303.268 343.039 303.895 343.067 304.496 343.067Z" fill="#000"/>
<path d="M297.012 342.636C298.249 342.791 298.087 344.596 296.832 344.518C296.2 344.461 295.567 344.391 294.935 344.32C294.871 344.312 294.824 344.301 294.765 344.285C293.644 343.911 294.058 342.306 295.15 342.443C295.77 342.511 296.391 342.58 297.012 342.636Z" fill="#000"/>
<path d="M289.763 341.702C290.877 342.179 290.32 343.715 289.27 343.518C288.643 343.412 288.017 343.298 287.392 343.18C287.363 343.175 287.336 343.168 287.309 343.16C287.287 343.153 287.265 343.146 287.242 343.138C286.126 342.66 286.666 341.121 287.747 341.324C288.361 341.44 288.975 341.551 289.59 341.655C289.628 341.662 289.659 341.67 289.692 341.679C289.714 341.686 289.737 341.694 289.763 341.702Z" fill="#000"/>
<path d="M282.478 341.875C282.264 341.982 282.046 342.02 281.802 341.959C281.185 341.807 280.569 341.647 279.955 341.482C279.147 341.28 278.997 340.146 279.752 339.74C279.969 339.623 280.201 339.596 280.449 339.658C281.052 339.82 281.656 339.976 282.262 340.126C283.092 340.333 283.241 341.464 282.478 341.875Z" fill="#000"/>
<path d="M275.247 338.134C276.232 338.74 275.517 340.195 274.473 339.847C273.868 339.649 273.267 339.444 272.667 339.234C272.019 339.018 271.823 338.164 272.305 337.682C272.572 337.415 272.938 337.333 273.294 337.452C273.883 337.658 274.474 337.859 275.068 338.053C275.138 338.077 275.183 338.102 275.247 338.134Z" fill="#000"/>
<path d="M268.097 335.472C269.182 336.014 268.447 337.644 267.322 337.194C266.734 336.952 266.15 336.702 265.567 336.448C264.441 335.923 265.153 334.249 266.324 334.717C266.573 334.825 266.825 334.93 267.076 335.036C267.419 335.179 267.761 335.322 268.097 335.472Z" fill="#000"/>
<path d="M261.339 332.386C262.32 333.065 261.428 334.535 260.389 334.016C259.925 333.792 259.458 333.545 258.998 333.301C258.895 333.247 258.792 333.192 258.689 333.139C258.616 333.097 258.57 333.064 258.504 333.009C257.648 332.154 258.7 330.969 259.581 331.473C259.824 331.604 260.077 331.73 260.329 331.856C260.673 332.027 261.017 332.199 261.339 332.386Z" fill="#000"/>
<path d="M254.694 328.716C255.75 329.446 254.766 330.932 253.708 330.327C253.163 329.999 252.621 329.668 252.083 329.33C251.309 328.833 251.623 327.648 252.526 327.588C252.728 327.575 252.93 327.628 253.093 327.733C253.184 327.79 253.275 327.847 253.366 327.905C253.804 328.181 254.251 328.462 254.694 328.716Z" fill="#000"/>
<path d="M248.333 326.213C248.005 326.389 247.634 326.373 247.324 326.158C246.804 325.791 246.289 325.418 245.777 325.042C245.729 325.006 245.693 324.974 245.651 324.931C244.851 323.972 246.068 322.882 246.9 323.522C247.403 323.892 247.909 324.257 248.419 324.618C248.978 325.005 248.937 325.887 248.333 326.213Z" fill="#000"/>
<path d="M242.547 320.144C243.368 321.04 242.145 322.261 241.265 321.528C241.014 321.322 240.766 321.112 240.519 320.902C240.28 320.699 240.041 320.497 239.8 320.298C239.747 320.25 239.705 320.208 239.662 320.15C238.98 319.164 240.263 318.165 241.038 318.87C241.213 319.019 241.395 319.168 241.578 319.318C241.91 319.59 242.245 319.865 242.547 320.144Z" fill="#000"/>
<path d="M236.911 315.139C237.713 316.015 236.476 317.299 235.56 316.46C235.101 316.02 234.646 315.578 234.195 315.129C233.639 314.573 233.967 313.627 234.745 313.524C235.034 313.485 235.327 313.589 235.531 313.793C235.729 313.989 235.932 314.184 236.134 314.378C236.397 314.63 236.659 314.882 236.911 315.139Z" fill="#000"/>
<path d="M231.697 309.778C232.428 310.728 231.066 311.881 230.248 310.99C230.053 310.774 229.86 310.553 229.668 310.333C229.44 310.072 229.213 309.811 228.98 309.558C228.2 308.543 229.587 307.424 230.413 308.325C230.583 308.52 230.759 308.715 230.934 308.91C231.193 309.198 231.453 309.486 231.697 309.778Z" fill="#000"/>
<path d="M226.92 304.094C227.476 305.206 226.026 306.017 225.35 305.139L224.192 303.617C223.479 302.587 224.959 301.515 225.716 302.498C226.013 302.906 226.324 303.308 226.634 303.709C226.706 303.802 226.778 303.896 226.85 303.989L226.92 304.094Z" fill="#000"/>
<path d="M222.48 297.907C223.147 298.946 221.619 299.982 220.901 298.946C220.55 298.416 220.203 297.884 219.861 297.348C219.824 297.29 219.803 297.241 219.778 297.181L219.773 297.171C219.406 296.068 220.863 295.412 221.458 296.337C221.794 296.864 222.135 297.387 222.48 297.907Z" fill="#000"/>
<path d="M218.672 291.791C218.882 292.838 217.456 293.376 216.922 292.441C216.61 291.887 216.305 291.33 216.003 290.77C215.731 290.295 215.965 289.669 216.466 289.454C216.931 289.268 217.416 289.436 217.669 289.878C217.966 290.427 218.265 290.974 218.571 291.519C218.625 291.613 218.645 291.689 218.672 291.791Z" fill="#000"/>
<path d="M215.158 284.881C215.629 286.06 213.942 286.743 213.436 285.658C213.165 285.083 212.903 284.504 212.644 283.923C212.614 283.86 212.6 283.8 212.583 283.736C212.363 282.636 213.889 282.124 214.37 283.155C214.563 283.585 214.759 284.013 214.956 284.441C215.023 284.587 215.091 284.734 215.158 284.881Z" fill="#000"/>
<path d="M211.238 279.237C210.877 279.189 210.601 278.976 210.462 278.629C210.408 278.486 210.353 278.342 210.298 278.197C210.12 277.731 209.939 277.258 209.786 276.793C209.474 275.542 211.221 275.123 211.584 276.212C211.794 276.799 212.012 277.384 212.232 277.968C212.488 278.608 211.928 279.329 211.238 279.237Z" fill="#000"/>
<path d="M209.838 270.874C210.147 272.111 208.39 272.576 208.023 271.402C207.844 270.791 207.668 270.181 207.498 269.568L207.47 269.415C207.394 268.197 209.059 268.022 209.322 269.074C209.489 269.676 209.662 270.275 209.838 270.874Z" fill="#000"/>
<path d="M206.398 264.496C206.262 264.36 206.165 264.192 206.131 264.012C205.997 263.39 205.867 262.768 205.745 262.144C205.735 262.093 205.731 262.048 205.728 261.995C205.728 260.797 207.395 260.692 207.6 261.789C207.721 262.401 207.849 263.011 207.98 263.621C208.153 264.542 207.097 265.131 206.398 264.496Z" fill="#000"/>
<path d="M206.671 256.276C206.751 257.572 204.94 257.663 204.794 256.502L204.547 254.604C204.466 253.313 206.276 253.205 206.425 254.389C206.465 254.711 206.507 255.032 206.55 255.354C206.591 255.661 206.632 255.968 206.671 256.276Z" fill="#000"/>
<path d="M204.842 249.796C204.395 249.736 204.048 249.373 204.019 248.918C203.977 248.279 203.939 247.635 203.912 246.996C203.912 245.748 205.724 245.701 205.801 246.93C205.831 247.553 205.864 248.176 205.905 248.799C205.942 249.39 205.433 249.869 204.842 249.796Z" fill="#000"/>
<path d="M204.033 241.931C203.885 241.769 203.795 241.537 203.795 241.316C203.789 240.693 203.783 240.067 203.763 239.444C203.763 238.191 205.575 238.136 205.652 239.385C205.67 240.02 205.679 240.656 205.685 241.292C205.685 242.168 204.625 242.582 204.033 241.931Z" fill="#000"/>
<path d="M205.344 233.85C205.185 235.042 203.529 234.91 203.462 233.832C203.413 233.21 203.354 232.588 203.293 231.967C203.285 231.903 203.289 231.843 203.293 231.779L203.293 231.77C203.443 230.649 205.032 230.653 205.173 231.777C205.235 232.409 205.296 233.043 205.345 233.677C205.347 233.706 205.348 233.731 205.348 233.757C205.347 233.787 205.346 233.817 205.344 233.85Z" fill="#000"/>
<path d="M204.445 226.101C204.601 227.351 202.808 227.622 202.579 226.398C202.487 225.803 202.385 225.21 202.283 224.617L202.268 224.528C202.112 223.281 203.909 223.028 204.133 224.219C204.243 224.846 204.348 225.473 204.445 226.101Z" fill="#000"/>
<path d="M202.99 218.632C203.221 219.868 201.443 220.232 201.147 219.05C201.089 218.803 201.025 218.552 200.961 218.301C200.862 217.909 200.761 217.516 200.683 217.131C200.533 215.926 202.254 215.642 202.534 216.76C202.692 217.383 202.843 218.007 202.99 218.632Z" fill="#000"/>
<path d="M200.975 211.268C201.302 212.493 199.556 212.985 199.171 211.829C199.069 211.505 198.963 211.183 198.857 210.861C198.763 210.577 198.67 210.293 198.579 210.008C198.271 208.774 200.011 208.33 200.382 209.443C200.535 209.899 200.682 210.355 200.828 210.812C200.877 210.964 200.926 211.116 200.975 211.268Z" fill="#000"/>
<path d="M198.459 204.214C198.681 205.398 197.073 205.807 196.66 204.775C196.565 204.535 196.463 204.294 196.361 204.052C196.206 203.684 196.051 203.316 195.917 202.952C195.594 201.738 197.276 201.267 197.692 202.306C197.937 202.893 198.179 203.48 198.414 204.071C198.422 204.091 198.428 204.11 198.434 204.129C198.443 204.157 198.451 204.185 198.459 204.214Z" fill="#000"/>
<path d="M195.327 197.096C195.861 198.24 194.183 199.033 193.63 197.928C193.358 197.367 193.077 196.809 192.794 196.252C192.389 195.444 193.216 194.588 194.045 194.971C194.228 195.062 194.381 195.202 194.476 195.391C194.764 195.957 195.05 196.525 195.327 197.096Z" fill="#000"/>
<path d="M191.752 190.41C192.299 191.58 190.67 192.324 190.102 191.329C189.786 190.791 189.47 190.25 189.143 189.72C188.514 188.619 190.084 187.69 190.752 188.729C190.794 188.798 190.836 188.867 190.877 188.935C191.174 189.422 191.474 189.916 191.752 190.41Z" fill="#000"/>
<path d="M187.77 184.188C188.059 185.273 186.679 185.856 186.09 185.005C185.735 184.491 185.377 183.98 185.014 183.472L184.95 183.37C184.398 182.266 185.915 181.454 186.548 182.368C186.918 182.884 187.282 183.405 187.643 183.928C187.705 184.018 187.734 184.088 187.77 184.188Z" fill="#000"/>
<path d="M183.18 177.939C183.748 178.993 182.292 179.867 181.621 178.995C181.231 178.507 180.834 178.026 180.435 177.545C180.03 177.059 180.206 176.32 180.792 176.069C181.17 175.907 181.62 176.014 181.886 176.333C182.292 176.823 182.696 177.314 183.093 177.81C183.126 177.854 183.154 177.892 183.18 177.939Z" fill="#000"/>
<path d="M178.163 172.113C178.883 173.152 177.478 174.157 176.725 173.334C176.298 172.879 175.87 172.424 175.435 171.976C175.35 171.883 175.314 171.826 175.257 171.72C174.809 170.675 176.123 169.931 176.788 170.656C177.23 171.113 177.666 171.575 178.1 172.039L178.163 172.113Z" fill="#000"/>
<path d="M172.772 166.729C173.547 167.66 172.275 168.829 171.421 168.046C170.962 167.623 170.5 167.203 170.035 166.787C169.318 166.13 169.901 164.965 170.871 165.159C171.012 165.187 171.178 165.271 171.289 165.373C171.763 165.797 172.233 166.224 172.7 166.656L172.772 166.729Z" fill="#000"/>
<path d="M166.96 161.72C167.857 162.618 166.67 163.878 165.742 163.164C165.254 162.774 164.761 162.391 164.267 162.01C163.528 161.441 163.973 160.255 164.91 160.318C165.093 160.33 165.27 160.398 165.416 160.51C165.527 160.596 165.639 160.681 165.752 160.767C166.159 161.079 166.572 161.395 166.96 161.72Z" fill="#000"/>
<path d="M160.906 157.252C161.744 158.09 160.635 159.348 159.722 158.717C159.498 158.564 159.271 158.414 159.043 158.264C158.73 158.057 158.417 157.849 158.111 157.637C157.141 156.828 158.222 155.464 159.196 156.09C159.727 156.438 160.254 156.793 160.78 157.151C160.826 157.183 160.864 157.214 160.906 157.252Z" fill="#000"/>
<path d="M154.522 153.234C155.3 154.012 154.338 155.268 153.386 154.724C152.846 154.411 152.303 154.104 151.757 153.801L151.627 153.715C150.705 152.947 151.713 151.6 152.669 152.146C153.225 152.454 153.778 152.767 154.328 153.086C154.404 153.13 154.456 153.174 154.522 153.234Z" fill="#000"/>
<path d="M147.64 149.536C148.696 150.139 147.868 151.725 146.772 151.213C146.512 151.087 146.248 150.964 145.984 150.842C145.66 150.692 145.336 150.542 145.019 150.384C143.949 149.772 144.802 148.198 145.868 148.696C145.999 148.757 146.131 148.818 146.264 148.879C146.726 149.091 147.194 149.306 147.64 149.536Z" fill="#000"/>
<path d="M140.783 146.537C141.736 147.196 140.933 148.612 139.915 148.204C139.335 147.974 138.751 147.753 138.167 147.532C138.099 147.505 138.05 147.481 137.986 147.442C137.007 146.764 137.848 145.37 138.828 145.762C139.423 145.986 140.017 146.211 140.608 146.446C140.674 146.472 140.723 146.499 140.783 146.537Z" fill="#000"/>
<path d="M133.586 143.983C134.614 144.57 133.876 146.056 132.859 145.717C132.699 145.668 132.535 145.616 132.369 145.564C131.933 145.425 131.485 145.283 131.06 145.177C129.866 144.779 130.377 143.059 131.582 143.361C132.095 143.504 132.608 143.662 133.118 143.82C133.215 143.85 133.312 143.879 133.409 143.909C133.474 143.931 133.527 143.951 133.586 143.983Z" fill="#000"/>
<path d="M126.045 141.919C127.247 142.22 126.876 143.996 125.632 143.763C125.013 143.622 124.394 143.486 123.774 143.353C122.573 143.032 122.984 141.283 124.183 141.508C124.805 141.639 125.425 141.778 126.045 141.919Z" fill="#000"/>
<path d="M118.589 140.49C119.767 140.71 119.525 142.509 118.274 142.353C117.657 142.257 117.039 142.171 116.421 142.086C116.363 142.079 116.318 142.066 116.263 142.051C115.162 141.684 115.54 140.072 116.671 140.213C116.762 140.225 116.854 140.238 116.945 140.25C117.493 140.325 118.045 140.4 118.589 140.49Z" fill="#000"/>
<path d="M111.011 139.611C112.234 139.764 112.062 141.57 110.837 141.493C110.579 141.473 110.317 141.457 110.054 141.442C109.658 141.418 109.26 141.395 108.874 141.354C107.669 141.128 107.93 139.406 109.078 139.477C109.721 139.516 110.369 139.555 111.011 139.611Z" fill="#000"/>
<path d="M103.401 139.293C104.639 139.371 104.559 141.182 103.358 141.182L103.2 141.182C102.63 141.18 102.056 141.178 101.486 141.19C100.659 141.19 100.227 140.26 100.754 139.627C100.918 139.428 101.2 139.301 101.451 139.301C102.096 139.289 102.756 139.282 103.401 139.293Z" fill="#000"/>
<path d="M96.6969 140.788C96.5707 141.141 96.2483 141.395 95.8703 141.419C95.602 141.436 95.33 141.46 95.0577 141.484C94.6716 141.518 94.2849 141.552 93.9073 141.567C92.6309 141.487 92.7409 139.749 93.837 139.681C94.47 139.626 95.1046 139.574 95.7388 139.533C96.4218 139.491 96.9131 140.14 96.6969 140.788Z" fill="#000"/>
<path d="M88.9039 141.986C88.7663 142.101 88.6001 142.182 88.4258 142.204C88.1566 142.242 87.8859 142.285 87.6152 142.329C87.2414 142.389 86.8675 142.449 86.4971 142.495C85.3077 142.574 85.0779 140.844 86.2662 140.621C86.8936 140.518 87.5229 140.423 88.1522 140.333C89.0933 140.216 89.6137 141.341 88.9039 141.986Z" fill="#000"/>
<path d="M80.646 141.694C81.8903 141.461 82.2614 143.237 81.0595 143.537C80.4503 143.672 79.8414 143.81 79.2351 143.957C79.1701 143.973 79.1096 143.979 79.0397 143.984C77.879 143.984 77.7188 142.388 78.7869 142.121C79.4052 141.973 80.0251 141.831 80.646 141.694Z" fill="#000"/>
<path d="M73.4562 143.572C74.5841 143.501 74.8917 145.058 73.813 145.418C73.2155 145.597 72.6183 145.78 72.0246 145.972C71.2214 146.24 70.498 145.373 70.9017 144.624C71.0196 144.405 71.2101 144.252 71.441 144.175C72.0465 143.98 72.6539 143.792 73.2627 143.61C73.323 143.589 73.3819 143.582 73.4459 143.573L73.4562 143.572Z" fill="#000"/>
<path d="M67.3274 146.883C67.3538 147.304 67.1206 147.676 66.7264 147.834C66.4892 147.925 66.2503 148.022 66.011 148.119C65.6378 148.27 65.2635 148.422 64.893 148.552C63.6828 148.855 63.219 147.191 64.2697 146.771C64.859 146.532 65.4501 146.299 66.0438 146.072C66.627 145.839 67.2858 146.257 67.3274 146.883Z" fill="#000"/>
<path d="M59.0963 149.037C60.2974 148.636 60.8753 150.289 59.839 150.773C59.2739 151.039 58.7131 151.311 58.1533 151.587L58.0592 151.628C56.9008 152.014 56.2821 150.41 57.312 149.895C57.4421 149.831 57.5734 149.765 57.7055 149.699C58.1651 149.469 58.6346 149.235 59.0963 149.037Z" fill="#000"/>
<path d="M52.2841 152.558C53.4006 151.999 54.2392 153.616 53.1893 154.216C52.913 154.372 52.639 154.533 52.3651 154.693C52.0859 154.856 51.8069 155.019 51.5259 155.178C50.355 155.724 49.612 154.096 50.6067 153.527C50.6995 153.473 50.7925 153.418 50.8856 153.363C51.3486 153.09 51.8149 152.815 52.2841 152.558Z" fill="#000"/>
<path d="M45.9016 156.496C47.0071 156.054 47.7366 157.505 46.8178 158.141C46.2996 158.49 45.7822 158.839 45.2708 159.197L45.1627 159.262C44.0961 159.796 43.245 158.301 44.1853 157.65C44.7058 157.285 45.2326 156.929 45.7602 156.575C45.8075 156.542 45.8525 156.521 45.9016 156.496Z" fill="#000"/>
<path d="M39.6506 160.995C40.7641 160.359 41.6345 161.85 40.7497 162.531C40.2576 162.915 39.7697 163.304 39.2848 163.697C38.2768 164.472 37.1475 163.019 38.0905 162.233C38.2053 162.14 38.3213 162.045 38.4381 161.949C38.8361 161.622 39.2443 161.288 39.6506 160.995Z" fill="#000"/>
<path d="M33.8298 165.893C34.8238 165.204 35.8787 166.571 35.0219 167.356C34.5577 167.774 34.1015 168.201 33.6461 168.627L33.5724 168.69C32.5327 169.41 31.5281 168.005 32.3505 167.252C32.4705 167.139 32.5923 167.023 32.7155 166.905C33.0799 166.558 33.4558 166.199 33.8298 165.893Z" fill="#000"/>
<path d="M28.4228 171.175C29.3756 170.516 30.4328 171.752 29.6685 172.586C29.2392 173.039 28.811 173.494 28.3907 173.956C28.3313 174.021 28.2758 174.065 28.2051 174.114C27.2409 174.707 26.2689 173.474 26.9923 172.684C27.4212 172.215 27.8555 171.752 28.2928 171.29C28.3347 171.244 28.3763 171.214 28.4228 171.175Z" fill="#000"/>
<path d="M23.2471 177.007C24.0333 176.063 25.4865 177.193 24.7113 178.201C24.3152 178.684 23.9248 179.171 23.5381 179.661C23.4508 179.774 23.3635 179.835 23.2475 179.907C22.3041 180.378 21.4394 179.289 22.052 178.493C22.447 177.994 22.8438 177.498 23.2471 177.007Z" fill="#000"/>
<path d="M20.0799 182.957C20.406 183.284 20.4408 183.792 20.1823 184.165C20.027 184.384 19.8752 184.61 19.7232 184.836C19.503 185.164 19.2823 185.493 19.05 185.799C18.1402 186.709 16.9414 185.535 17.5506 184.654C17.9051 184.127 18.2672 183.597 18.6357 183.08C18.9725 182.594 19.6683 182.546 20.0799 182.957Z" fill="#000"/>
<path d="M14.5051 189.446C15.2096 188.428 16.7093 189.394 16.1095 190.444C15.7905 190.98 15.4734 191.518 15.1646 192.06C14.886 192.548 14.2571 192.685 13.8047 192.372C13.3996 192.091 13.2813 191.547 13.5205 191.128L13.5385 191.097C13.8536 190.545 14.1731 189.986 14.5051 189.446Z" fill="#000"/>
<path d="M10.9391 195.985C11.6515 195.13 13.0065 196.021 12.5114 197.011C12.2324 197.57 11.958 198.13 11.6889 198.693C11.6436 198.79 11.596 198.85 11.5264 198.933C10.7403 199.719 9.53877 198.831 9.98135 197.884C10.2557 197.31 10.5347 196.739 10.8189 196.17C10.8552 196.098 10.89 196.051 10.9391 195.985Z" fill="#000"/>
<path d="M7.6868 203.057C8.22879 201.973 9.85814 202.71 9.4114 203.827C9.17367 204.404 8.94425 204.985 8.71672 205.566L8.65776 205.691C8.01865 206.73 6.5435 205.912 6.95471 204.884C7.00426 204.757 7.05377 204.629 7.10349 204.5C7.29037 204.016 7.48022 203.525 7.6868 203.057Z" fill="#000"/>
<path d="M6.42255 209.757C6.7971 209.971 6.96189 210.457 6.82923 210.856C6.63534 211.449 6.44976 212.045 6.26608 212.641C6.24453 212.706 6.22412 212.759 6.19238 212.818C5.60504 213.846 4.11893 213.108 4.45795 212.091C4.64542 211.483 4.83439 210.877 5.03168 210.272C5.22482 209.693 5.90362 209.438 6.42255 209.757Z" fill="#000"/>
<path d="M4.62803 217.28C4.78602 217.491 4.84535 217.791 4.77921 218.056C4.62879 218.662 4.4897 219.27 4.35099 219.879C4.05052 221.08 2.27414 220.709 2.50734 219.465C2.64831 218.846 2.79005 218.225 2.94312 217.608C3.13739 216.831 4.13556 216.624 4.62803 217.28Z" fill="#000"/>
<path d="M1.42828 224.986C1.83383 223.769 3.47414 224.311 3.27194 225.389C3.168 226.01 3.06935 226.634 2.97865 227.257C2.75036 228.473 0.957353 228.195 1.11118 226.965C1.13666 226.796 1.16113 226.624 1.18582 226.45C1.25563 225.958 1.32721 225.454 1.42828 224.986Z" fill="#000"/>
<path d="M0.696567 232.071C1.32397 231.444 2.3709 231.913 2.31458 232.814C2.292 233.062 2.27386 233.315 2.25567 233.568C2.22636 233.976 2.19693 234.386 2.14866 234.781C1.91357 235.957 0.20296 235.717 0.275905 234.548C0.322393 233.913 0.374551 233.28 0.432378 232.647C0.44485 232.445 0.548787 232.219 0.696567 232.071Z" fill="#000"/>
<path d="M0.0177627 240.234C0.094865 239.001 1.90677 239.063 1.90677 240.288C1.90187 240.596 1.90019 240.904 1.89852 241.211C1.89671 241.544 1.8949 241.877 1.88901 242.209C1.81153 243.447 0 243.366 0 242.166C0 241.524 0.00188866 240.876 0.0177627 240.234Z" fill="#000"/>
<path d="M0.000754337 247.793C0.0782346 246.554 1.88976 246.635 1.88976 247.835L1.88901 249.768C1.81153 251.006 0 250.926 0 249.725L0.000754337 247.793Z" fill="#000"/>
<path d="M0.000754337 255.352C0.0782346 254.113 1.88976 254.194 1.88976 255.394L1.88901 257.327C1.81153 258.565 0 258.485 0 257.284L0.000754337 255.352Z" fill="#000"/>
<path d="M0.000754337 262.911C0.0782346 261.672 1.88976 261.753 1.88976 262.953L1.88901 264.886C1.81153 266.125 0 266.044 0 264.843L0.000754337 262.911Z" fill="#000"/>
<path d="M0.000754337 270.47C0.0782346 269.231 1.88976 269.312 1.88976 270.513L1.88901 272.445C1.81153 273.684 0 273.603 0 272.402L0.000754337 270.47Z" fill="#000"/>
<path d="M0.000754337 278.029C0.0782346 276.79 1.88976 276.871 1.88976 278.072L1.88901 280.004C1.81153 281.243 0 281.162 0 279.961L0.000754337 278.029Z" fill="#000"/>
<path d="M0.000754337 285.588C0.0782346 284.349 1.88976 284.43 1.88976 285.631L1.88901 287.563C1.81153 288.802 0 288.721 0 287.52L0.000754337 285.588Z" fill="#000"/>
<path d="M0.000754337 293.147C0.0782346 291.908 1.88976 291.989 1.88976 293.19L1.88901 295.122C1.81153 296.361 0 296.28 0 295.079L0.000754337 293.147Z" fill="#000"/>
<path d="M0.000754337 300.706C0.0782346 299.467 1.88976 299.548 1.88976 300.749L1.88901 302.681C1.81153 303.92 0 303.839 0 302.639L0.000754337 300.706Z" fill="#000"/>
<path d="M0.000754337 308.265C0.0782346 307.027 1.88976 307.107 1.88976 308.308L1.88901 310.24C1.81153 311.479 0 311.398 0 310.198L0.000754337 308.265Z" fill="#000"/>
<path d="M0.000754337 315.824C0.0782346 314.586 1.88976 314.667 1.88976 315.867L1.88901 317.799C1.81153 319.038 0 318.957 0 317.757L0.000754337 315.824Z" fill="#000"/>
<path d="M0.000754337 323.383C0.0782346 322.145 1.88976 322.226 1.88976 323.426L1.88901 325.358C1.81153 326.597 0 326.516 0 325.316L0.000754337 323.383Z" fill="#000"/>
<path d="M0.000754337 330.942C0.0782346 329.704 1.88976 329.785 1.88976 330.985L1.88901 332.917C1.81153 334.156 0 334.075 0 332.875L0.000754337 330.942Z" fill="#000"/>
<path d="M0.000754337 338.501C0.0782346 337.263 1.88976 337.344 1.88976 338.544L1.88901 340.477C1.81153 341.715 0 341.634 0 340.434L0.000754337 338.501Z" fill="#000"/>
<path d="M0.000754337 346.06C0.0782346 344.822 1.88976 344.903 1.88976 346.103L1.88901 348.036C1.81153 349.274 0 349.193 0 347.993L0.000754337 346.06Z" fill="#000"/>
<path d="M0.000754337 353.619C0.0782346 352.381 1.88976 352.462 1.88976 353.662L1.88901 355.595C1.81153 356.833 0 356.752 0 355.552L0.000754337 353.619Z" fill="#000"/>
<path d="M0.000754337 361.178C0.0782346 359.94 1.88976 360.021 1.88976 361.221L1.88901 363.154C1.81153 364.392 0 364.311 0 363.111L0.000754337 361.178Z" fill="#000"/>
<path d="M0.000754337 368.738C0.0782346 367.499 1.88976 367.58 1.88976 368.78L1.88901 370.713C1.81153 371.951 0 371.87 0 370.67L0.000754337 368.738Z" fill="#000"/>
<path d="M0.000754337 376.297C0.0782346 375.058 1.88976 375.139 1.88976 376.339L1.88901 378.272C1.81153 379.51 0 379.429 0 378.229L0.000754337 376.297Z" fill="#000"/>
<path d="M0.000754337 383.856C0.0782346 382.617 1.88976 382.698 1.88976 383.898L1.88901 385.831C1.81153 387.069 0 386.989 0 385.788L0.000754337 383.856Z" fill="#000"/>
<path d="M0.000754337 391.415C0.0782346 390.176 1.88976 390.257 1.88976 391.457L1.88901 393.39C1.81153 394.628 0 394.548 0 393.347L0.000754337 391.415Z" fill="#000"/>
<path d="M0.000754337 398.974C0.0782346 397.735 1.88976 397.816 1.88976 399.016L1.88901 400.949C1.81153 402.188 0 402.107 0 400.906L0.000754337 398.974Z" fill="#000"/>
<path d="M0.000754337 406.533C0.0782346 405.294 1.88976 405.375 1.88976 406.576L1.88901 408.508C1.81153 409.747 0 409.666 0 408.465L0.000754337 406.533Z" fill="#000"/>
<path d="M0.000754337 414.092C0.0782346 412.853 1.88976 412.934 1.88976 414.135L1.88901 416.067C1.81153 417.306 0 417.225 0 416.024L0.000754337 414.092Z" fill="#000"/>
<path d="M0.000754337 421.651C0.0782346 420.412 1.88976 420.493 1.88976 421.694L1.88901 423.626C1.81153 424.865 0 424.784 0 423.583L0.000754337 421.651Z" fill="#000"/>
<path d="M0.000754337 429.21C0.0782346 427.971 1.88976 428.052 1.88976 429.253L1.88901 431.185C1.81153 432.424 0 432.343 0 431.142L0.000754337 429.21Z" fill="#000"/>
<path d="M0.000754337 436.769C0.0782346 435.53 1.88976 435.611 1.88976 436.812L1.88901 438.744C1.81153 439.983 0 439.902 0 438.702L0.000754337 436.769Z" fill="#000"/>
<path d="M0.000754337 444.328C0.0782346 443.09 1.88976 443.17 1.88976 444.371L1.88901 446.303C1.81153 447.542 0 447.461 0 446.261L0.000754337 444.328Z" fill="#000"/>
<path d="M0.000754337 451.887C0.0782346 450.649 1.88976 450.729 1.88976 451.93L1.88901 453.862C1.81153 455.101 0 455.02 0 453.82L0.000754337 451.887Z" fill="#000"/>
<path d="M0.000754337 459.446C0.0782346 458.208 1.88976 458.289 1.88976 459.489L1.88901 461.421C1.81153 462.66 0 462.579 0 461.379L0.000754337 459.446Z" fill="#000"/>
<path d="M0.000754337 467.005C0.0782346 465.767 1.88976 465.848 1.88976 467.048L1.88901 468.98C1.81153 470.219 0 470.138 0 468.938L0.000754337 467.005Z" fill="#000"/>
</svg>
