<?xml version="1.0" encoding="utf-8"?>
<!-- Generator: Adobe Illustrator 24.2.1, SVG Export Plug-In . SVG Version: 6.00 Build 0)  -->
<svg version="1.1" id="Слой_1" xmlns="http://www.w3.org/2000/svg" xmlns:xlink="http://www.w3.org/1999/xlink" x="0px" y="0px"
	 viewBox="0 0 225 225" style="enable-background:new 0 0 225 225;" xml:space="preserve">
<style type="text/css">
	.st0{fill:#252425;}
</style>
<g>
	<path class="st0" d="M121.6,81.7c-3.5-2.4-7.2-2-10.8,1.2c-3.5,3.2-5.8,7.6-4.1,8.2c0.7,0.3,2.5,1.1,4.1,1.9c7,3.6,6.1,3.8,10.2-2
		c2.2-3.2,3.5-5.6,3.4-6.3C124.2,83.9,123,82.6,121.6,81.7z"/>
	<path class="st0" d="M129.4,130.7c1.1,0.4,4,0,6.5-0.7c9-2.7,12.8-5.9,13.5-11.2c0.4-2.6-1.1-7.1-2.7-8.2c-0.6-0.4-1.9,0.3-3.8,1.9
		c-1.5,1.4-6.4,4.5-10.7,6.9c-4.3,2.4-8.1,4.6-8.3,5C122.9,125.8,126.4,129.8,129.4,130.7z"/>
	<path class="st0" d="M117.7,116.2c-0.7,2.6,3.2,6.2,6,5.6c2.2-0.5,17.1-9.5,19.5-11.7c2.5-2.4,3.2-4.9,1.9-7.6
		c-1.3-3.1-4.2-5.2-6.4-4.6c-0.8,0.2-3.2,1.6-5.2,3.1C128.6,104.6,118,114.8,117.7,116.2z"/>
	<path class="st0" d="M123.7,107.6c0.3,0,3-2.3,6.1-5c3.1-2.7,6.1-5.5,6.5-6.1c1.8-2.7-2.3-8.9-6.6-10c-3.1-0.7-3.6-0.4-7.5,5.1
		l-3.4,4.8l3.5,1.9c4.2,2.2,4.7,3.8,2.3,7.3C123.9,106.8,123.5,107.6,123.7,107.6z"/>
	<path class="st0" d="M91.3,169c-3.3,11.8-3.5,11,4.1,13.9c5.6,2.2,17.1,3.7,26.4,3.3c10.9-0.5,21.6-4,24.8-8.3
		c1.8-2.4,2.1-6.7,0.6-8.2c-0.8-0.9-5.3-1.7-12.7-2.3l-3.5-0.3l0.6-6.6c0.3-3.7,0.5-6.8,0.3-6.9c-0.1-0.1-1.4-0.2-2.9-0.3
		c-3.7-0.2-4.3-0.8-1.5-1.4c2.7-0.5,7.3-4,9.5-7.3c1.5-2.1,1.7-2.2,2.7-1c5.4,6.3,21.3,23.4,21.7,23.3c1.1-0.1,8.4-6.9,8.4-7.7
		c0-0.4-5.6-7.1-12.5-14.7c-11.5-12.7-12.5-13.9-11.9-15.4c0.5-1.5,0.1-1.4-3.8,0.4c-2.4,1.1-6.1,2.2-8.1,2.6
		c-3.1,0.5-4.4,0.2-7.5-1.4c-2.1-1.1-4.5-2.2-5.4-2.4c-1.3-0.3-1.7-0.9-2.1-3.2c-0.6-4-3.8-8.8-8-11.8c-3.7-2.7-3.6-3.1,0.6-2.1
		c1.4,0.4,3.4,0.6,4.4,0.5c4.3-0.5,8.3-4.4,8.3-8.2c0-2-0.3-2.2-3.9-4.1c-5.1-2.8-16.4-7.7-17.4-7.5c-0.3,0.1-3.9,4.4-7.9,9.6
		l-7.2,9.4l0.3,2.8c0.1,1.5,2.6,8.4,5.6,15.3l5.4,12.5l-2.3,8.5C95.2,154.6,92.9,163.2,91.3,169z"/>
	<path class="st0" d="M84.8,41.6c-3.7,5.1-5.3,6.2-9,6.3c-2.8,0-6,2.6-11.7,9.5c-6.4,7.7-8.5,14.5-8.7,29c-0.3,13.1,1.3,21.1,4,19.2
		c1.5-1.1,2.8-6.8,3.8-16.3c1.2-11.6,2.3-15.3,5.1-16.4c1-0.4,2-0.7,2.2-0.6c0.1,0.1,1.7,1.8,3.4,3.7c5.3,5.8,19.8,19.5,20.5,19.3
		c1-0.2,9.5-8.6,9.5-9.4c0-0.4-2.6-4.1-5.8-8.4c-6.4-8.6-10.8-15.6-11.4-18.1c-0.3-1.2,0.2-2.6,1.6-4.6c1.7-2.5,2.5-2.9,4.9-3.3
		c2.1-0.3,3.8-1.3,6.4-3.6c3.3-3,3.5-3.3,3.3-4.9c-0.4-1.9-6.9-9.3-8.7-9.7C92.4,32.9,88.7,36.2,84.8,41.6z M71.1,54.2
		c-2.2,1.7-5.2,4.6-6.9,6.3l-3,3.2l3.1-4.6c4.2-6.1,8.2-9.9,9.6-8.9C74.9,50.9,74.8,51,71.1,54.2z M97.3,38.2c1.3,1.2,1.3,1.7,0.4,3
		c-1.6,2.2-3.8,3.8-4.5,3.5c-0.4-0.2-1.2-0.9-1.9-1.5c-1-1.1-1-1.5,0.2-2.5c0.8-0.7,2-1.9,2.8-2.6C95.5,37,96,37,97.3,38.2z
		 M93.8,35.1c0.8,0.5,0.5,1-1.2,2.8c-2.5,2.6-3.2,2.9-4.3,2.1c-0.6-0.4-0.6-0.9,0.1-1.4c0.5-0.5,1.8-1.7,2.7-2.5
		C92.2,35.2,93.3,34.8,93.8,35.1z"/>
</g>
</svg>
