<?xml version="1.0" encoding="utf-8"?>
<!-- Generator: Adobe Illustrator 24.2.1, SVG Export Plug-In . SVG Version: 6.00 Build 0)  -->
<svg version="1.1" id="Слой_1" xmlns="http://www.w3.org/2000/svg" xmlns:xlink="http://www.w3.org/1999/xlink" x="0px" y="0px"
	 viewBox="0 0 853.5 315.9" style="enable-background:new 0 0 853.5 315.9;" xml:space="preserve">
<style type="text/css">
	.st0{fill:#252425;}
	.st1{font-family:'Roboto-Light';}
	.st2{font-size:97.8251px;}
	.st3{font-size:97.83px;}
</style>
<g>
	<path class="st0" d="M140.6,107.8c-6.1-4.1-12.4-3.4-18.6,2.1c-6.1,5.5-9.9,13.1-7,14.1c1.2,0.5,4.3,1.9,7,3.3
		c12,6.2,10.5,6.5,17.5-3.4c3.7-5.5,6.1-9.7,5.8-10.9C145.2,111.6,143.1,109.4,140.6,107.8z"/>
	<path class="st0" d="M154,192.1c1.9,0.7,6.9,0,11.2-1.2c15.5-4.7,22.1-10.2,23.2-19.3c0.7-4.4-1.9-12.3-4.7-14.1
		c-1.1-0.7-3.3,0.5-6.5,3.3c-2.6,2.5-11,7.7-18.4,11.9s-13.9,7.9-14.2,8.6C142.8,183.7,148.9,190.6,154,192.1z"/>
	<path class="st0" d="M134,167.1c-1.2,4.4,5.5,10.6,10.3,9.7c3.7-0.8,29.4-16.3,33.5-20.1c4.3-4.1,5.5-8.4,3.3-13.1
		c-2.2-5.4-7.2-9-11-7.9c-1.4,0.4-5.5,2.8-9,5.4C152.6,147.2,134.4,164.8,134,167.1z"/>
	<path class="st0" d="M144.2,152.4c0.5,0,5.1-4,10.5-8.6c5.4-4.7,10.5-9.5,11.2-10.5c3.2-4.7-4-15.3-11.3-17.2
		c-5.4-1.2-6.2-0.7-13,8.8l-5.8,8.3l6.1,3.3c7.2,3.7,8.1,6.5,4,12.6C144.6,151,143.9,152.4,144.2,152.4z"/>
	<path class="st0" d="M88.6,258.1c-5.7,20.3-6.1,18.9,7,23.9c9.7,3.7,29.4,6.4,45.4,5.7c18.8-0.8,37.1-6.9,42.7-14.2
		c3.2-4.1,3.6-11.6,1.1-14.1c-1.4-1.5-9.1-2.9-21.8-4l-6.1-0.5l1.1-11.3c0.5-6.4,0.8-11.7,0.5-11.9c-0.1-0.1-2.5-0.4-5-0.5
		c-6.4-0.4-7.4-1.4-2.6-2.5c4.7-0.8,12.6-6.9,16.3-12.6c2.6-3.6,2.9-3.7,4.7-1.8c9.3,10.9,36.7,40.3,37.4,40
		c1.9-0.1,14.5-11.9,14.5-13.2c0-0.7-9.7-12.3-21.5-25.3c-19.7-21.8-21.5-23.9-20.4-26.5c0.8-2.6,0.1-2.5-6.5,0.7
		c-4.1,1.9-10.5,3.7-13.9,4.4c-5.4,0.8-7.6,0.4-13-2.5c-3.6-1.9-7.7-3.7-9.3-4.1c-2.2-0.5-2.9-1.5-3.6-5.5
		c-1.1-6.9-6.5-15.2-13.8-20.3c-6.4-4.7-6.2-5.4,1.1-3.6c2.5,0.7,5.8,1.1,7.6,0.8c7.4-0.8,14.2-7.6,14.2-14.1c0-3.4-0.5-3.7-6.7-7
		c-8.8-4.8-28.2-13.2-29.9-13c-0.5,0.1-6.7,7.6-13.5,16.5L82,158l0.5,4.8c0.1,2.6,4.4,14.5,9.7,26.4l9.3,21.5l-4,14.6
		C95.2,233.2,91.2,248,88.6,258.1z"/>
	<path class="st0" d="M77.4,38.8c-6.4,8.8-9.1,10.6-15.5,10.9c-4.8,0-10.3,4.4-20.1,16.3c-11,13.2-14.6,25-14.9,49.8
		c-0.5,22.5,2.2,36.3,6.9,33c2.6-1.9,4.8-11.7,6.5-28c2-20,3.9-26.4,8.8-28.2c1.8-0.7,3.4-1.2,3.7-1.1c0.1,0.1,2.9,3.2,5.8,6.4
		c9.1,9.9,34.1,33.5,35.3,33.2c1.8-0.4,16.3-14.8,16.3-16.2c0-0.7-4.4-7-9.9-14.5c-11-14.7-18.6-26.7-19.6-31.1
		c-0.5-2.1,0.4-4.4,2.8-7.9c2.9-4.3,4.3-5,8.4-5.7c3.6-0.5,6.5-2.2,11-6.2c5.7-5.1,6.1-5.7,5.7-8.4c-0.7-3.3-11.9-16-15.1-16.6
		C90.4,23.9,84,29.5,77.4,38.8z M53.8,60.6c-3.7,2.9-9,7.9-11.9,10.9l-5.1,5.5l5.4-7.9c7.2-10.5,14.1-17,16.5-15.3
		C60.3,54.8,60.2,55,53.8,60.6z M98.8,33c2.2,2.1,2.2,2.9,0.7,5.1c-2.8,3.7-6.5,6.5-7.7,6.1c-0.7-0.4-2.1-1.5-3.3-2.6
		c-1.8-1.9-1.8-2.6,0.4-4.3c1.4-1.2,3.4-3.3,4.8-4.4C95.8,30.9,96.6,30.9,98.8,33z M92.9,27.6c1.4,0.8,0.8,1.8-2.1,4.8
		c-4.3,4.4-5.5,5-7.4,3.6c-1.1-0.7-1.1-1.5,0.1-2.5c0.8-0.8,3.2-2.9,4.7-4.3C90.1,27.9,91.9,27.2,92.9,27.6z"/>
</g>
<text transform="matrix(1 0 0 1 275.3535 298.7222)" class="st1 st2">Микрозадач</text>
<text transform="matrix(1 0 0 1 275.4976 198.209)" class="st1 st3">Быстрых</text>
<text transform="matrix(1 0 0 1 275.3535 90.7222)" class="st1 st2">Биржа</text>
</svg>
