<?xml version="1.0" encoding="utf-8"?>
<!-- Generator: Adobe Illustrator 24.2.1, SVG Export Plug-In . SVG Version: 6.00 Build 0)  -->
<svg version="1.1" id="Слой_1" xmlns="http://www.w3.org/2000/svg" xmlns:xlink="http://www.w3.org/1999/xlink" x="0px" y="0px"
	 viewBox="0 0 853.5 225" style="enable-background:new 0 0 853.5 225;" xml:space="preserve">
<style type="text/css">
	.st0{fill:#252425;}
	.st1{font-family:'Roboto-Light';}
	.st2{font-size:97.8251px;}
</style>
<g>
	<path class="st0" d="M124.3,70.9c-5.2-3.5-10.6-2.9-15.9,1.8c-5.2,4.7-8.5,11.2-6,12.1c1,0.4,3.7,1.6,6,2.8c10.3,5.3,9,5.6,15-2.9
		c3.2-4.7,5.2-8.3,5-9.3C128.2,74.1,126.4,72.2,124.3,70.9z"/>
	<path class="st0" d="M135.8,143.1c1.6,0.6,5.9,0,9.6-1c13.3-4,18.9-8.7,19.9-16.5c0.6-3.8-1.6-10.5-4-12.1
		c-0.9-0.6-2.8,0.4-5.6,2.8c-2.2,2.1-9.4,6.6-15.8,10.2s-11.9,6.8-12.2,7.4C126.2,135.9,131.4,141.8,135.8,143.1z"/>
	<path class="st0" d="M118.6,121.7c-1,3.8,4.7,9.1,8.8,8.3c3.2-0.7,25.2-14,28.7-17.2c3.7-3.5,4.7-7.2,2.8-11.2
		c-1.9-4.6-6.2-7.7-9.4-6.8c-1.2,0.3-4.7,2.4-7.7,4.6C134.6,104.6,119,119.7,118.6,121.7z"/>
	<path class="st0" d="M127.4,109.1c0.4,0,4.4-3.4,9-7.4s9-8.1,9.6-9c2.7-4-3.4-13.1-9.7-14.7c-4.6-1-5.3-0.6-11.1,7.5l-5,7.1
		l5.2,2.8c6.2,3.2,6.9,5.6,3.4,10.8C127.7,107.9,127.1,109.1,127.4,109.1z"/>
	<path class="st0" d="M79.7,199.6c-4.9,17.4-5.2,16.2,6,20.5c8.3,3.2,25.2,5.5,38.9,4.9c16.1-0.7,31.8-5.9,36.6-12.2
		c2.7-3.5,3.1-9.9,0.9-12.1c-1.2-1.3-7.8-2.5-18.7-3.4l-5.2-0.4l0.9-9.7c0.4-5.5,0.7-10,0.4-10.2c-0.1-0.1-2.1-0.3-4.3-0.4
		c-5.5-0.3-6.3-1.2-2.2-2.1c4-0.7,10.8-5.9,14-10.8c2.2-3.1,2.5-3.2,4-1.5c8,9.3,31.4,34.5,32,34.3c1.6-0.1,12.4-10.2,12.4-11.3
		c0-0.6-8.3-10.5-18.4-21.7c-16.9-18.7-18.4-20.5-17.5-22.7c0.7-2.2,0.1-2.1-5.6,0.6c-3.5,1.6-9,3.2-11.9,3.8
		c-4.6,0.7-6.5,0.3-11.1-2.1c-3.1-1.6-6.6-3.2-8-3.5c-1.9-0.4-2.5-1.3-3.1-4.7c-0.9-5.9-5.6-13-11.8-17.4c-5.5-4-5.3-4.6,0.9-3.1
		c2.1,0.6,5,0.9,6.5,0.7c6.3-0.7,12.2-6.5,12.2-12.1c0-2.9-0.4-3.2-5.7-6c-7.5-4.1-24.2-11.3-25.6-11.1c-0.4,0.1-5.7,6.5-11.6,14.1
		l-10.6,13.9l0.4,4.1c0.1,2.2,3.8,12.4,8.3,22.6l8,18.4l-3.4,12.5C85.4,178.3,82,191,79.7,199.6z"/>
	<path class="st0" d="M70.1,11.8c-5.5,7.5-7.8,9.1-13.3,9.3c-4.1,0-8.8,3.8-17.2,14c-9.4,11.3-12.5,21.4-12.8,42.7
		c-0.4,19.3,1.9,31.1,5.9,28.3c2.2-1.6,4.1-10,5.6-24C40,65,41.6,59.5,45.8,57.9c1.5-0.6,2.9-1,3.2-0.9c0.1,0.1,2.5,2.7,5,5.5
		c7.8,8.5,29.2,28.7,30.2,28.4c1.5-0.3,14-12.7,14-13.9c0-0.6-3.8-6-8.5-12.4C80.3,52,73.8,41.7,72.9,38c-0.4-1.8,0.3-3.8,2.4-6.8
		c2.5-3.7,3.7-4.3,7.2-4.9c3.1-0.4,5.6-1.9,9.4-5.3c4.9-4.4,5.2-4.9,4.9-7.2C96.2,11,86.6,0.1,83.9-0.4C81.3-1,75.8,3.8,70.1,11.8z
		 M49.9,30.4c-3.2,2.5-7.7,6.8-10.2,9.3l-4.4,4.7l4.6-6.8C46.1,28.6,52,23,54,24.5C55.5,25.5,55.4,25.6,49.9,30.4z M88.5,6.8
		c1.9,1.8,1.9,2.5,0.6,4.4c-2.4,3.2-5.6,5.6-6.6,5.2c-0.6-0.3-1.8-1.3-2.8-2.2c-1.5-1.6-1.5-2.2,0.3-3.7c1.2-1,2.9-2.8,4.1-3.8
		C85.9,5,86.6,5,88.5,6.8z M83.4,2.2c1.2,0.7,0.7,1.5-1.8,4.1c-3.7,3.8-4.7,4.3-6.3,3.1c-0.9-0.6-0.9-1.3,0.1-2.1
		c0.7-0.7,2.7-2.5,4-3.7C81,2.4,82.6,1.8,83.4,2.2z"/>
</g>
<text transform="matrix(1 0 0 1 248.3535 89.7222)"><tspan x="0" y="0" class="st1 st2">Биржа</tspan><tspan x="0" y="112" class="st1 st2">Микрозадач</tspan></text>
</svg>
